<svg width="93" height="93" viewBox="0 0 93 93" fill="none" xmlns="http://www.w3.org/2000/svg">
<path d="M41.5179 66.4285H51.4822V84.6963H41.5179V66.4285Z" fill="#525252"/>
<path d="M0 88.0178H21.5893V91.3393H0V88.0178Z" fill="#525252"/>
<path d="M24.9107 41.5178H68.0893V44.8393H24.9107V41.5178Z" fill="#525252"/>
<path d="M21.5893 41.518C19.7549 41.518 18.2679 40.0309 18.2679 38.1965H7.03479C6.40527 38.1945 5.82941 38.5507 5.55011 39.1149L2.68704 44.8394H21.5893V41.518Z" fill="#525252"/>
<path d="M64.7678 84.6965V48.1608H28.2321V84.6965H38.1964V64.7679C38.1964 63.8507 38.9399 63.1072 39.8571 63.1072H53.1428C54.06 63.1072 54.8035 63.8507 54.8035 64.7679V84.6965H64.7678ZM43.1785 56.4643C43.1785 57.3815 42.435 58.125 41.5178 58.125C40.6006 58.125 39.8571 57.3815 39.8571 56.4643V53.1429C39.8571 52.2257 40.6006 51.4822 41.5178 51.4822C42.435 51.4822 43.1785 52.2257 43.1785 53.1429V56.4643ZM53.1428 56.4643C53.1428 57.3815 52.3993 58.125 51.4821 58.125C50.5649 58.125 49.8214 57.3815 49.8214 56.4643V53.1429C49.8214 52.2257 50.5649 51.4822 51.4821 51.4822C52.3993 51.4822 53.1428 52.2257 53.1428 53.1429V56.4643Z" fill="#525252"/>
<path d="M62.9062 25.3974C62.5944 25.0855 62.1714 24.9104 61.7304 24.9108H29.7882C29.2955 24.911 28.8282 25.13 28.5128 25.5086L23.4742 31.5536H69.0625L62.9062 25.3974Z" fill="#525252"/>
<path d="M68.0893 5.82579H68.1109L46.5 0L24.9107 5.79921L46.5083 11.625L68.0893 5.82579Z" fill="#525252"/>
<path d="M71.4107 44.8394H90.313L87.4499 39.1149C87.1706 38.5507 86.5947 38.1945 85.9652 38.1965H74.7321C74.7321 40.0309 73.2451 41.518 71.4107 41.518V44.8394Z" fill="#525252"/>
<path d="M45.6464 14.8334L33.2143 11.4954V21.5892H59.7857V11.4954L47.3536 14.8334C46.7945 14.9839 46.2055 14.9839 45.6464 14.8334Z" fill="#525252"/>
<path d="M21.5893 34.875H71.4107V38.1964H21.5893V34.875Z" fill="#525252"/>
<path d="M24.9107 48.1608H1.66071V84.6965H24.9107V48.1608ZM9.96428 78.0536C9.96428 78.9708 9.22075 79.7143 8.30356 79.7143C7.38637 79.7143 6.64285 78.9708 6.64285 78.0536V74.7322C6.64285 73.815 7.38637 73.0715 8.30356 73.0715C9.22075 73.0715 9.96428 73.815 9.96428 74.7322V78.0536ZM9.96428 68.0893C9.96428 69.0065 9.22075 69.75 8.30356 69.75C7.38637 69.75 6.64285 69.0065 6.64285 68.0893V64.7679C6.64285 63.8507 7.38637 63.1072 8.30356 63.1072C9.22075 63.1072 9.96428 63.8507 9.96428 64.7679V68.0893ZM9.96428 58.125C9.96428 59.0422 9.22075 59.7858 8.30356 59.7858C7.38637 59.7858 6.64285 59.0422 6.64285 58.125V54.8036C6.64285 53.8864 7.38637 53.1429 8.30356 53.1429C9.22075 53.1429 9.96428 53.8864 9.96428 54.8036V58.125ZM19.9286 78.0536C19.9286 78.9708 19.185 79.7143 18.2678 79.7143C17.3507 79.7143 16.6071 78.9708 16.6071 78.0536V74.7322C16.6071 73.815 17.3507 73.0715 18.2678 73.0715C19.185 73.0715 19.9286 73.815 19.9286 74.7322V78.0536ZM19.9286 68.0893C19.9286 69.0065 19.185 69.75 18.2678 69.75C17.3507 69.75 16.6071 69.0065 16.6071 68.0893V64.7679C16.6071 63.8507 17.3507 63.1072 18.2678 63.1072C19.185 63.1072 19.9286 63.8507 19.9286 64.7679V68.0893ZM19.9286 58.125C19.9286 59.0422 19.185 59.7858 18.2678 59.7858C17.3507 59.7858 16.6071 59.0422 16.6071 58.125V54.8036C16.6071 53.8864 17.3507 53.1429 18.2678 53.1429C19.185 53.1429 19.9286 53.8864 19.9286 54.8036V58.125Z" fill="#525252"/>
<path d="M71.4107 88.0178H93V91.3393H71.4107V88.0178Z" fill="#525252"/>
<path d="M53.1429 88.0178H39.8571H24.9107V93H68.0909L68.0893 88.0178H53.1429Z" fill="#525252"/>
<path d="M91.3393 48.1608H68.0893V84.6965H91.3393V48.1608ZM76.3929 78.0536C76.3929 78.9708 75.6493 79.7143 74.7322 79.7143C73.815 79.7143 73.0714 78.9708 73.0714 78.0536V74.7322C73.0714 73.815 73.815 73.0715 74.7322 73.0715C75.6493 73.0715 76.3929 73.815 76.3929 74.7322V78.0536ZM76.3929 68.0893C76.3929 69.0065 75.6493 69.75 74.7322 69.75C73.815 69.75 73.0714 69.0065 73.0714 68.0893V64.7679C73.0714 63.8507 73.815 63.1072 74.7322 63.1072C75.6493 63.1072 76.3929 63.8507 76.3929 64.7679V68.0893ZM76.3929 58.125C76.3929 59.0422 75.6493 59.7858 74.7322 59.7858C73.815 59.7858 73.0714 59.0422 73.0714 58.125V54.8036C73.0714 53.8864 73.815 53.1429 74.7322 53.1429C75.6493 53.1429 76.3929 53.8864 76.3929 54.8036V58.125ZM86.3572 78.0536C86.3572 78.9708 85.6136 79.7143 84.6964 79.7143C83.7793 79.7143 83.0357 78.9708 83.0357 78.0536V74.7322C83.0357 73.815 83.7793 73.0715 84.6964 73.0715C85.6136 73.0715 86.3572 73.815 86.3572 74.7322V78.0536ZM86.3572 68.0893C86.3572 69.0065 85.6136 69.75 84.6964 69.75C83.7793 69.75 83.0357 69.0065 83.0357 68.0893V64.7679C83.0357 63.8507 83.7793 63.1072 84.6964 63.1072C85.6136 63.1072 86.3572 63.8507 86.3572 64.7679V68.0893ZM86.3572 58.125C86.3572 59.0422 85.6136 59.7858 84.6964 59.7858C83.7793 59.7858 83.0357 59.0422 83.0357 58.125V54.8036C83.0357 53.8864 83.7793 53.1429 84.6964 53.1429C85.6136 53.1429 86.3572 53.8864 86.3572 54.8036V58.125Z" fill="#525252"/>
<path d="M68.2188 9.20032H64.8974V15.3948V15.4064C64.8956 17.1118 65.7478 18.7048 67.1676 19.6495C67.6612 19.9788 68.2931 20.0197 68.825 19.7569C69.357 19.494 69.7084 18.9673 69.7467 18.3752C69.7851 17.783 69.5046 17.2154 69.011 16.8861C68.5155 16.5569 68.218 16.0013 68.2188 15.4064V15.3948V9.20032Z" fill="#525252"/>
</svg>
