<svg width="94" height="94" viewBox="0 0 94 94" fill="none" xmlns="http://www.w3.org/2000/svg">
<g filter="url(#filter0_d)">
<path d="M42.2856 63.8571H51.7142V81.1428H42.2856V63.8571Z" fill="#032C4B"/>
<path d="M3 84.2858H23.4286V87.4286H3V84.2858Z" fill="#032C4B"/>
<path d="M26.5715 40.2858H67.4287V43.4286H26.5715V40.2858Z" fill="#032C4B"/>
<path d="M23.4285 40.2858C21.6927 40.2858 20.2856 38.8787 20.2856 37.143H9.65648C9.0608 37.141 8.5159 37.4781 8.25162 38.012L5.54248 43.4287H23.4285V40.2858Z" fill="#032C4B"/>
<path d="M64.2858 81.1428V46.5714H29.7144V81.1428H39.1429V62.2857C39.1429 61.4178 39.8465 60.7143 40.7143 60.7143H53.2858C54.1536 60.7143 54.8572 61.4178 54.8572 62.2857V81.1428H64.2858ZM43.8572 54.4286C43.8572 55.2964 43.1537 56 42.2858 56C41.4179 56 40.7143 55.2964 40.7143 54.4286V51.2857C40.7143 50.4178 41.4179 49.7143 42.2858 49.7143C43.1537 49.7143 43.8572 50.4178 43.8572 51.2857V54.4286ZM53.2858 54.4286C53.2858 55.2964 52.5822 56 51.7143 56C50.8465 56 50.1429 55.2964 50.1429 54.4286V51.2857C50.1429 50.4178 50.8465 49.7143 51.7143 49.7143C52.5822 49.7143 53.2858 50.4178 53.2858 51.2857V54.4286Z" fill="#032C4B"/>
<path d="M62.5242 25.0318C62.2291 24.7367 61.8289 24.5711 61.4116 24.5714H31.1867C30.7204 24.5716 30.2783 24.7788 29.9799 25.1371L25.2122 30.8571H68.3494L62.5242 25.0318Z" fill="#032C4B"/>
<path d="M67.4287 6.51257H67.4491L47.0001 1L26.5715 6.48743L47.008 12L67.4287 6.51257Z" fill="#032C4B"/>
<path d="M70.5715 43.4287H88.4575L85.7484 38.012C85.4841 37.4781 84.9392 37.141 84.3435 37.143H73.7144C73.7144 38.8787 72.3073 40.2858 70.5715 40.2858V43.4287Z" fill="#032C4B"/>
<path d="M46.1922 15.036L34.4285 11.8774V21.4286H59.5713V11.8774L47.8076 15.036C47.2786 15.1785 46.7212 15.1785 46.1922 15.036Z" fill="#032C4B"/>
<path d="M23.4285 34H70.5713V37.1429H23.4285V34Z" fill="#032C4B"/>
<path d="M26.5715 46.5714H4.57153V81.1428H26.5715V46.5714ZM12.4287 74.8571C12.4287 75.725 11.7251 76.4286 10.8572 76.4286C9.98937 76.4286 9.28582 75.725 9.28582 74.8571V71.7143C9.28582 70.8464 9.98937 70.1428 10.8572 70.1428C11.7251 70.1428 12.4287 70.8464 12.4287 71.7143V74.8571ZM12.4287 65.4286C12.4287 66.2964 11.7251 67 10.8572 67C9.98937 67 9.28582 66.2964 9.28582 65.4286V62.2857C9.28582 61.4178 9.98937 60.7143 10.8572 60.7143C11.7251 60.7143 12.4287 61.4178 12.4287 62.2857V65.4286ZM12.4287 56C12.4287 56.8679 11.7251 57.5714 10.8572 57.5714C9.98937 57.5714 9.28582 56.8679 9.28582 56V52.8571C9.28582 51.9892 9.98937 51.2857 10.8572 51.2857C11.7251 51.2857 12.4287 51.9892 12.4287 52.8571V56ZM21.8572 74.8571C21.8572 75.725 21.1537 76.4286 20.2858 76.4286C19.4179 76.4286 18.7144 75.725 18.7144 74.8571V71.7143C18.7144 70.8464 19.4179 70.1428 20.2858 70.1428C21.1537 70.1428 21.8572 70.8464 21.8572 71.7143V74.8571ZM21.8572 65.4286C21.8572 66.2964 21.1537 67 20.2858 67C19.4179 67 18.7144 66.2964 18.7144 65.4286V62.2857C18.7144 61.4178 19.4179 60.7143 20.2858 60.7143C21.1537 60.7143 21.8572 61.4178 21.8572 62.2857V65.4286ZM21.8572 56C21.8572 56.8679 21.1537 57.5714 20.2858 57.5714C19.4179 57.5714 18.7144 56.8679 18.7144 56V52.8571C18.7144 51.9892 19.4179 51.2857 20.2858 51.2857C21.1537 51.2857 21.8572 51.9892 21.8572 52.8571V56Z" fill="#032C4B"/>
<path d="M70.5715 84.2858H91.0001V87.4286H70.5715V84.2858Z" fill="#032C4B"/>
<path d="M53.2858 84.2858H40.7144H26.5715V89.0001H67.4303L67.4287 84.2858H53.2858Z" fill="#032C4B"/>
<path d="M89.4285 46.5714H67.4285V81.1428H89.4285V46.5714ZM75.2856 74.8571C75.2856 75.725 74.5821 76.4286 73.7142 76.4286C72.8463 76.4286 72.1428 75.725 72.1428 74.8571V71.7143C72.1428 70.8464 72.8463 70.1428 73.7142 70.1428C74.5821 70.1428 75.2856 70.8464 75.2856 71.7143V74.8571ZM75.2856 65.4286C75.2856 66.2964 74.5821 67 73.7142 67C72.8463 67 72.1428 66.2964 72.1428 65.4286V62.2857C72.1428 61.4178 72.8463 60.7143 73.7142 60.7143C74.5821 60.7143 75.2856 61.4178 75.2856 62.2857V65.4286ZM75.2856 56C75.2856 56.8679 74.5821 57.5714 73.7142 57.5714C72.8463 57.5714 72.1428 56.8679 72.1428 56V52.8571C72.1428 51.9892 72.8463 51.2857 73.7142 51.2857C74.5821 51.2857 75.2856 51.9892 75.2856 52.8571V56ZM84.7142 74.8571C84.7142 75.725 84.0106 76.4286 83.1428 76.4286C82.2749 76.4286 81.5713 75.725 81.5713 74.8571V71.7143C81.5713 70.8464 82.2749 70.1428 83.1428 70.1428C84.0106 70.1428 84.7142 70.8464 84.7142 71.7143V74.8571ZM84.7142 65.4286C84.7142 66.2964 84.0106 67 83.1428 67C82.2749 67 81.5713 66.2964 81.5713 65.4286V62.2857C81.5713 61.4178 82.2749 60.7143 83.1428 60.7143C84.0106 60.7143 84.7142 61.4178 84.7142 62.2857V65.4286ZM84.7142 56C84.7142 56.8679 84.0106 57.5714 83.1428 57.5714C82.2749 57.5714 81.5713 56.8679 81.5713 56V52.8571C81.5713 51.9892 82.2749 51.2857 83.1428 51.2857C84.0106 51.2857 84.7142 51.9892 84.7142 52.8571V56Z" fill="#032C4B"/>
<path d="M67.5511 9.70569H64.4082V15.5671V15.5781C64.4065 17.1918 65.2129 18.6991 66.5563 19.5931C67.0234 19.9047 67.6213 19.9434 68.1247 19.6947C68.6281 19.446 68.9605 18.9476 68.9968 18.3873C69.0331 17.827 68.7677 17.2898 68.3006 16.9783C67.8318 16.6668 67.5503 16.141 67.5511 15.5781V15.5671V9.70569Z" fill="#032C4B"/>
</g>
<defs>
<filter id="filter0_d" x="0" y="0" width="94" height="94" filterUnits="userSpaceOnUse" color-interpolation-filters="sRGB">
<feFlood flood-opacity="0" result="BackgroundImageFix"/>
<feColorMatrix in="SourceAlpha" type="matrix" values="0 0 0 0 0 0 0 0 0 0 0 0 0 0 0 0 0 0 127 0"/>
<feOffset dy="2"/>
<feGaussianBlur stdDeviation="1.5"/>
<feColorMatrix type="matrix" values="0 0 0 0 0 0 0 0 0 0 0 0 0 0 0 0 0 0 0.25 0"/>
<feBlend mode="normal" in2="BackgroundImageFix" result="effect1_dropShadow"/>
<feBlend mode="normal" in="SourceGraphic" in2="effect1_dropShadow" result="shape"/>
</filter>
</defs>
</svg>
