<svg width="29" height="29" viewBox="0 0 29 29" fill="none" xmlns="http://www.w3.org/2000/svg">
<path d="M14.5 0C6.50484 0 0 6.50484 0 14.5C0 22.4951 6.50484 28.9999 14.5 28.9999C22.4951 28.9999 28.9999 22.4951 28.9999 14.5C28.9999 6.50484 22.4952 0 14.5 0ZM14.5 26.4782C7.89554 26.4782 2.5217 21.1044 2.5217 14.5C2.5217 7.89554 7.89554 2.52176 14.5 2.52176C21.1044 2.52176 26.4782 7.89554 26.4782 14.5C26.4782 21.1044 21.1044 26.4782 14.5 26.4782Z" fill="#525252"/>
<path d="M21.2507 7.75034C21.0678 7.56624 20.7917 7.51328 20.5559 7.61671L11.7298 11.3993C11.5811 11.4624 11.4625 11.5821 11.3982 11.7309L7.61559 20.557C7.51346 20.7941 7.56642 21.0689 7.74922 21.2518C7.87027 21.3703 8.03168 21.4346 8.19557 21.4346C8.27879 21.4346 8.36325 21.4169 8.44398 21.3842L17.2701 17.6016C17.4188 17.5373 17.5374 17.4187 17.6017 17.2699L21.3843 8.44386C21.4852 8.2068 21.4322 7.93191 21.2507 7.75034ZM14.4999 15.7607C13.8052 15.7607 13.2391 15.1945 13.2391 14.4998C13.2391 13.8051 13.8052 13.239 14.4999 13.239C15.1947 13.239 15.7608 13.8051 15.7608 14.4998C15.7608 15.1945 15.1947 15.7607 14.4999 15.7607Z" fill="#525252"/>
</svg>
