<svg width="52" height="52" viewBox="0 0 52 52" fill="none" xmlns="http://www.w3.org/2000/svg">
<path d="M27.6866 16.5483H22.1973V19.5416H27.6866V16.5483Z" fill="#032C4B"/>
<path d="M13.6583 16.5483H8.16898V26.4373H13.6583V16.5483Z" fill="#032C4B"/>
<path d="M0 34.9917V36.0599C0 37.9815 1.56335 39.5449 3.48512 39.5449H21.331V45.5753H16.7734C15.9312 45.5753 15.2485 46.258 15.2485 47.1002C15.2485 47.9423 15.9312 48.625 16.7734 48.625H21.331H30.4656H35.2264C36.0686 48.625 36.7513 47.9423 36.7513 47.1002C36.7513 46.258 36.0686 45.5753 35.2264 45.5753H30.4656V39.5449H48.515C50.4366 39.5449 52 37.9815 52 36.0599V34.9917H0Z" fill="#032C4B"/>
<path d="M48.515 3.375H3.48512C1.56335 3.375 0 4.93835 0 6.86002V31.9421H52V6.86002C52 4.93835 50.4366 3.375 48.515 3.375ZM19.1475 15.4647C19.1475 14.3807 20.0294 13.4987 21.1134 13.4987H28.7701C29.8542 13.4987 30.7362 14.3807 30.7362 15.4647V20.6255C30.7362 21.7095 29.8542 22.5914 28.7701 22.5914H21.1134C20.0293 22.5914 19.1475 21.7095 19.1475 20.6255V15.4647ZM9.39616 9.54665C9.40123 9.49688 9.40834 9.44702 9.4185 9.39827C9.42866 9.34952 9.44084 9.30066 9.45506 9.25395C9.46928 9.20611 9.48655 9.15929 9.50584 9.11257C9.52413 9.06687 9.54545 9.02208 9.56891 8.97851C9.59227 8.93473 9.61868 8.89106 9.6462 8.85034C9.67362 8.8088 9.70308 8.76797 9.73466 8.72948C9.76615 8.69088 9.79977 8.6532 9.83531 8.61867C9.87086 8.58302 9.90854 8.54941 9.94713 8.51802C9.98471 8.48644 10.0254 8.45597 10.0671 8.42855C10.1087 8.40102 10.1515 8.37563 10.1951 8.35227C10.2388 8.32891 10.2846 8.30759 10.3303 8.28819C10.376 8.26981 10.4239 8.25254 10.4706 8.23842C10.5183 8.22319 10.5672 8.2109 10.6159 8.20186C10.6647 8.1917 10.7145 8.18459 10.7633 8.17952C10.8629 8.16936 10.9636 8.16936 11.0632 8.17952C11.113 8.18459 11.1628 8.1917 11.2116 8.20186C11.2603 8.211 11.3082 8.22319 11.3559 8.23842C11.4036 8.25264 11.4505 8.26991 11.4962 8.28819C11.5419 8.30738 11.5877 8.32871 11.6313 8.35227C11.675 8.37553 11.7188 8.40092 11.7594 8.42855C11.8011 8.45597 11.8418 8.48644 11.8804 8.51802C11.919 8.54951 11.9566 8.58313 11.9912 8.61867C12.0267 8.6532 12.0603 8.69088 12.0918 8.72948C12.1233 8.76807 12.1539 8.8088 12.1813 8.85034C12.2087 8.89096 12.2342 8.93473 12.2576 8.97851C12.2809 9.02218 12.3023 9.06687 12.3217 9.11257C12.3399 9.15929 12.3572 9.20611 12.3714 9.25395C12.3867 9.30066 12.3989 9.34941 12.408 9.39827C12.4181 9.44691 12.4253 9.49688 12.4303 9.54665C12.4354 9.59641 12.4385 9.64618 12.4385 9.69605C12.4385 9.74591 12.4354 9.7967 12.4303 9.84646C12.4253 9.89511 12.4181 9.94508 12.408 9.99373C12.3989 10.0425 12.3867 10.0913 12.3714 10.1392C12.3572 10.1859 12.3399 10.2337 12.3217 10.2794C12.3024 10.3251 12.281 10.3708 12.2576 10.4146C12.2342 10.4583 12.2088 10.501 12.1813 10.5427C12.1539 10.5843 12.1234 10.625 12.0918 10.6626C12.0603 10.7012 12.0267 10.7389 11.9912 10.7745C11.9566 10.8091 11.919 10.8437 11.8804 10.8751C11.8418 10.9067 11.8011 10.9362 11.7594 10.9635C11.7188 10.9911 11.675 11.0174 11.6313 11.0409C11.5877 11.0642 11.5419 11.0855 11.4962 11.1039C11.4505 11.1232 11.4036 11.1405 11.3559 11.1547C11.3082 11.169 11.2603 11.1812 11.2116 11.1913C11.1628 11.2013 11.113 11.2085 11.0632 11.2136C11.0134 11.2188 10.9636 11.2207 10.9138 11.2207C10.864 11.2207 10.8132 11.2187 10.7634 11.2136C10.7146 11.2085 10.6648 11.2014 10.616 11.1913C10.5673 11.1811 10.5184 11.1689 10.4707 11.1547C10.424 11.1405 10.3761 11.1232 10.3304 11.1039C10.2847 11.0856 10.2389 11.0643 10.1953 11.0409C10.1516 11.0176 10.1088 10.9912 10.0672 10.9635C10.0255 10.9361 9.98481 10.9067 9.94723 10.8751C9.90864 10.8436 9.87096 10.8091 9.83541 10.7745C9.79987 10.7389 9.76625 10.7012 9.73477 10.6626C9.70328 10.625 9.67373 10.5843 9.6463 10.5427C9.61888 10.501 9.59237 10.4583 9.56902 10.4146C9.54566 10.3708 9.52433 10.3251 9.50595 10.2794C9.48665 10.2337 9.46938 10.1859 9.45516 10.1392C9.44095 10.0913 9.42876 10.0426 9.4186 9.99373C9.40845 9.94508 9.40134 9.89511 9.39626 9.84646C9.39118 9.7967 9.38915 9.74581 9.38915 9.69605C9.38905 9.64628 9.39108 9.59641 9.39616 9.54665ZM5.12667 9.54665C5.13175 9.49688 5.13886 9.44702 5.14902 9.39827C5.15917 9.34952 5.17136 9.30066 5.18558 9.25395C5.1998 9.20611 5.21706 9.15929 5.23636 9.11257C5.25464 9.06687 5.27597 9.02208 5.29943 8.97851C5.32279 8.93473 5.3492 8.89106 5.37672 8.85034C5.40414 8.8088 5.43359 8.76797 5.46518 8.72948C5.49666 8.69088 5.53028 8.6532 5.56583 8.61867C5.60137 8.58302 5.63905 8.54941 5.67765 8.51802C5.71523 8.48644 5.75595 8.45597 5.79759 8.42855C5.83923 8.40102 5.88199 8.37563 5.92566 8.35227C5.96934 8.32891 6.01514 8.30759 6.06084 8.28819C6.10655 8.26981 6.15438 8.25254 6.2011 8.23842C6.24884 8.22319 6.29769 8.2109 6.34644 8.20186C6.39519 8.1917 6.44505 8.18459 6.4938 8.17952C6.59344 8.16936 6.69409 8.16936 6.79372 8.17952C6.84348 8.18459 6.89335 8.1917 6.9421 8.20186C6.99085 8.211 7.03869 8.22319 7.08642 8.23842C7.13416 8.25264 7.18098 8.26991 7.22668 8.28819C7.27238 8.30738 7.31819 8.32871 7.36186 8.35227C7.40553 8.37553 7.44931 8.40092 7.48993 8.42855C7.53157 8.45597 7.5723 8.48644 7.61089 8.51802C7.64948 8.54951 7.68716 8.58313 7.7217 8.61867C7.75724 8.6532 7.79086 8.69088 7.82234 8.72948C7.85383 8.76807 7.8844 8.8088 7.91182 8.85034C7.93924 8.89096 7.96463 8.93473 7.98809 8.97851C8.01145 9.02218 8.03278 9.06687 8.05218 9.11257C8.07046 9.15929 8.08773 9.20611 8.10195 9.25395C8.11718 9.30066 8.12937 9.34941 8.13851 9.39827C8.14866 9.44691 8.15577 9.49688 8.16085 9.54665C8.16593 9.59641 8.16898 9.64618 8.16898 9.69605C8.16898 9.74591 8.16593 9.7967 8.16085 9.84646C8.15577 9.89511 8.14866 9.94508 8.13851 9.99373C8.12937 10.0425 8.11718 10.0913 8.10195 10.1392C8.08773 10.1859 8.07046 10.2337 8.05218 10.2794C8.03288 10.3251 8.01155 10.3708 7.98809 10.4146C7.96473 10.4583 7.93934 10.501 7.91182 10.5427C7.8844 10.5843 7.85383 10.625 7.82234 10.6626C7.79086 10.7012 7.75724 10.7389 7.7217 10.7745C7.68716 10.8091 7.64948 10.8437 7.61089 10.8751C7.5723 10.9067 7.53157 10.9362 7.48993 10.9635C7.44931 10.9911 7.40553 11.0174 7.36186 11.0409C7.31819 11.0642 7.27238 11.0855 7.22668 11.1039C7.18098 11.1232 7.13416 11.1405 7.08642 11.1547C7.03869 11.169 6.99085 11.1812 6.9421 11.1913C6.89335 11.2013 6.84348 11.2085 6.79372 11.2136C6.74395 11.2188 6.69409 11.2207 6.64432 11.2207C6.59455 11.2207 6.54367 11.2187 6.49391 11.2136C6.44516 11.2085 6.39529 11.2014 6.34654 11.1913C6.29779 11.1811 6.24894 11.1689 6.2012 11.1547C6.15448 11.1405 6.10665 11.1232 6.06095 11.1039C6.01524 11.0856 5.96944 11.0643 5.92577 11.0409C5.88209 11.0176 5.83934 10.9912 5.7977 10.9635C5.75605 10.9361 5.71533 10.9067 5.67775 10.8751C5.63916 10.8436 5.60148 10.8091 5.56593 10.7745C5.53038 10.7389 5.49677 10.7012 5.46528 10.6626C5.4338 10.625 5.40424 10.5843 5.37682 10.5427C5.3494 10.501 5.32299 10.4583 5.29953 10.4146C5.27617 10.3708 5.25484 10.3251 5.23646 10.2794C5.21716 10.2337 5.1999 10.1859 5.18568 10.1392C5.17146 10.0913 5.15927 10.0426 5.14912 9.99373C5.13896 9.94508 5.13185 9.89511 5.12677 9.84646C5.1217 9.7967 5.11966 9.74581 5.11966 9.69605C5.11956 9.64628 5.12159 9.59641 5.12667 9.54665ZM16.7078 27.5207C16.7078 28.6048 15.826 29.4867 14.7419 29.4867H7.0851C6.00102 29.4867 5.11916 28.6048 5.11916 27.5207V15.4647C5.11916 14.3807 6.00113 13.4987 7.0851 13.4987H14.7419C15.826 13.4987 16.7078 14.3807 16.7078 15.4647V27.5207ZM16.7 9.84656C16.6949 9.89521 16.6878 9.94518 16.6777 9.99383C16.6685 10.0426 16.6564 10.0914 16.6411 10.1393C16.6269 10.186 16.6096 10.2338 16.5914 10.2795C16.5721 10.3252 16.5507 10.3709 16.5273 10.4147C16.5039 10.4584 16.4785 10.5011 16.451 10.5428C16.4236 10.5844 16.3931 10.6251 16.3615 10.6627C16.33 10.7013 16.2964 10.739 16.2609 10.7746C16.2263 10.8092 16.1887 10.8438 16.1501 10.8752C16.1115 10.9068 16.0707 10.9363 16.0291 10.9636C15.9885 10.9912 15.9447 11.0175 15.901 11.041C15.8574 11.0643 15.8116 11.0856 15.7659 11.104C15.7201 11.1233 15.6733 11.1406 15.6256 11.1548C15.5779 11.1691 15.53 11.1813 15.4813 11.1914C15.4325 11.2014 15.3827 11.2086 15.3329 11.2137C15.2831 11.2189 15.2333 11.2208 15.1835 11.2208C15.1337 11.2208 15.0828 11.2188 15.0331 11.2137C14.9843 11.2086 14.9345 11.2015 14.8857 11.1914C14.837 11.1812 14.7881 11.169 14.7404 11.1548C14.6937 11.1406 14.6458 11.1233 14.6001 11.104C14.5544 11.0857 14.5086 11.0644 14.4649 11.041C14.4213 11.0177 14.3785 10.9913 14.3369 10.9636C14.2952 10.9362 14.2545 10.9068 14.2169 10.8752C14.1783 10.8437 14.1406 10.8092 14.1051 10.7746C14.0696 10.739 14.0359 10.7013 14.0045 10.6627C13.973 10.6251 13.9434 10.5844 13.916 10.5428C13.8886 10.5011 13.8622 10.4584 13.8387 10.4147C13.8153 10.3709 13.794 10.3252 13.7756 10.2795C13.7563 10.2338 13.7391 10.186 13.7249 10.1393C13.7106 10.0914 13.6984 10.0427 13.6883 9.99383C13.6781 9.94518 13.671 9.89521 13.6659 9.84656C13.6609 9.7968 13.6588 9.74591 13.6588 9.69615C13.6588 9.64638 13.6609 9.59662 13.6659 9.54675C13.671 9.49698 13.6781 9.44712 13.6883 9.39837C13.6984 9.34962 13.7106 9.30077 13.7249 9.25405C13.7391 9.20621 13.7563 9.15939 13.7756 9.11267C13.7939 9.06697 13.8152 9.02218 13.8387 8.97861C13.8621 8.93484 13.8885 8.89116 13.916 8.85044C13.9434 8.8089 13.973 8.76807 14.0045 8.72958C14.0359 8.69099 14.0696 8.65331 14.1051 8.61877C14.1406 8.58313 14.1783 8.54951 14.2169 8.51813C14.2545 8.48654 14.2952 8.45607 14.3369 8.42865C14.3785 8.40113 14.4213 8.37573 14.4649 8.35238C14.5086 8.32902 14.5544 8.30769 14.6001 8.28829C14.6458 8.26991 14.6937 8.25264 14.7404 8.23852C14.7881 8.22329 14.837 8.211 14.8857 8.20196C14.9345 8.19181 14.9843 8.1847 15.0331 8.17962C15.1327 8.16946 15.2334 8.16946 15.333 8.17962C15.3828 8.1847 15.4326 8.19181 15.4814 8.20196C15.5301 8.2111 15.578 8.22329 15.6257 8.23852C15.6734 8.25274 15.7202 8.27001 15.766 8.28829C15.8117 8.30749 15.8575 8.32881 15.9011 8.35238C15.9448 8.37563 15.9886 8.40102 16.0292 8.42865C16.0708 8.45607 16.1116 8.48654 16.1502 8.51813C16.1888 8.54961 16.2264 8.58323 16.261 8.61877C16.2965 8.65331 16.3301 8.69099 16.3616 8.72958C16.3931 8.76817 16.4237 8.8089 16.4511 8.85044C16.4785 8.89106 16.504 8.93484 16.5274 8.97861C16.5507 9.02228 16.5721 9.06697 16.5915 9.11267C16.6097 9.15939 16.627 9.20621 16.6412 9.25405C16.6565 9.30077 16.6686 9.34952 16.6778 9.39837C16.6879 9.44702 16.695 9.49698 16.7001 9.54675C16.7052 9.59652 16.7083 9.64628 16.7083 9.69615C16.7081 9.74602 16.7051 9.7967 16.7 9.84656ZM45.2093 29.4867H20.6723C19.8302 29.4867 19.1475 28.804 19.1475 27.9619C19.1475 27.1197 19.8302 26.437 20.6723 26.437H45.2092C46.0514 26.437 46.7341 27.1197 46.7341 27.9619C46.7341 28.804 46.0515 29.4867 45.2093 29.4867ZM45.2093 22.3708H35.3334C34.4912 22.3708 33.8085 21.6881 33.8085 20.846C33.8085 20.0038 34.4912 19.3211 35.3334 19.3211H45.2093C46.0515 19.3211 46.7342 20.0038 46.7342 20.846C46.7342 21.6881 46.0515 22.3708 45.2093 22.3708ZM45.2093 16.5485H35.3334C34.4912 16.5485 33.8085 15.8658 33.8085 15.0236C33.8085 14.1815 34.4912 13.4987 35.3334 13.4987H45.2093C46.0515 13.4987 46.7342 14.1815 46.7342 15.0236C46.7342 15.8658 46.0515 16.5485 45.2093 16.5485Z" fill="#032C4B"/>
</svg>
