<svg width="14" height="14" viewBox="0 0 14 14" fill="none" xmlns="http://www.w3.org/2000/svg">
<g clip-path="url(#clip0)">
<path d="M11.4697 0.418457H2.16283C1.0997 0.418457 0.234619 1.28354 0.234619 2.34667V11.6535C0.234619 12.7166 1.0997 13.5817 2.16283 13.5817H11.4697C12.5328 13.5817 13.3979 12.7166 13.3979 11.6535V2.34667C13.3979 1.28354 12.5328 0.418457 11.4697 0.418457ZM6.84196 10.4452C4.92811 10.4452 3.37118 8.88823 3.37118 6.97438C3.37118 5.06053 4.92811 3.5036 6.84196 3.5036C8.75581 3.5036 10.3127 5.06053 10.3127 6.97438C10.3127 8.88823 8.75581 10.4452 6.84196 10.4452ZM10.6984 4.27488C10.0605 4.27488 9.54145 3.75587 9.54145 3.11795C9.54145 2.48004 10.0605 1.96103 10.6984 1.96103C11.3363 1.96103 11.8553 2.48004 11.8553 3.11795C11.8553 3.75587 11.3363 4.27488 10.6984 4.27488Z" fill="white"/>
<path d="M10.6984 2.73242C10.4856 2.73242 10.3127 2.90526 10.3127 3.11806C10.3127 3.33087 10.4856 3.50371 10.6984 3.50371C10.9112 3.50371 11.084 3.33087 11.084 3.11806C11.084 2.90526 10.9112 2.73242 10.6984 2.73242Z" fill="white"/>
<path d="M6.84207 4.2749C5.35374 4.2749 4.14258 5.48606 4.14258 6.9744C4.14258 8.46274 5.35374 9.67389 6.84207 9.67389C8.33041 9.67389 9.54157 8.46274 9.54157 6.9744C9.54157 5.48606 8.33041 4.2749 6.84207 4.2749Z" fill="white"/>
</g>
<defs>
<clipPath id="clip0">
<rect width="13.1633" height="13.1633" fill="white" transform="translate(0.234619 0.418457)"/>
</clipPath>
</defs>
</svg>
