<svg width="23" height="23" viewBox="0 0 23 23" fill="none" xmlns="http://www.w3.org/2000/svg">
<path d="M19.6309 0H3.36914C1.51155 0 0 1.51155 0 3.36914V19.6309C0 21.4884 1.51155 23 3.36914 23H19.6309C21.4884 23 23 21.4884 23 19.6309V3.36914C23 1.51155 21.4884 0 19.6309 0ZM11.5449 17.5195C8.20087 17.5195 5.48047 14.7991 5.48047 11.4551C5.48047 8.11103 8.20087 5.39062 11.5449 5.39062C14.889 5.39062 17.6094 8.11103 17.6094 11.4551C17.6094 14.7991 14.889 17.5195 11.5449 17.5195ZM18.2832 6.73828C17.1686 6.73828 16.2617 5.83142 16.2617 4.7168C16.2617 3.60217 17.1686 2.69531 18.2832 2.69531C19.3978 2.69531 20.3047 3.60217 20.3047 4.7168C20.3047 5.83142 19.3978 6.73828 18.2832 6.73828Z" fill="#EDEDED"/>
<path d="M18.2832 4.04297C17.9114 4.04297 17.6094 4.34496 17.6094 4.7168C17.6094 5.08863 17.9114 5.39062 18.2832 5.39062C18.655 5.39062 18.957 5.08863 18.957 4.7168C18.957 4.34496 18.655 4.04297 18.2832 4.04297Z" fill="#EDEDED"/>
<path d="M11.5449 6.73828C8.94437 6.73828 6.82812 8.85452 6.82812 11.4551C6.82812 14.0556 8.94437 16.1719 11.5449 16.1719C14.1455 16.1719 16.2617 14.0556 16.2617 11.4551C16.2617 8.85452 14.1455 6.73828 11.5449 6.73828Z" fill="#EDEDED"/>
</svg>
