<svg width="10" height="9" viewBox="0 0 10 9" fill="none" xmlns="http://www.w3.org/2000/svg">
<g clip-path="url(#clip0)">
<path d="M8.18164 0H1.81836C1.09148 0 0.5 0.591476 0.5 1.31836V7.68164C0.5 8.40852 1.09148 9 1.81836 9H8.18164C8.90852 9 9.5 8.40852 9.5 7.68164V1.31836C9.5 0.591476 8.90852 0 8.18164 0ZM5.01758 6.85547C3.70904 6.85547 2.64453 5.79096 2.64453 4.48242C2.64453 3.17388 3.70904 2.10938 5.01758 2.10938C6.32612 2.10938 7.39062 3.17388 7.39062 4.48242C7.39062 5.79096 6.32612 6.85547 5.01758 6.85547ZM7.6543 2.63672C7.21814 2.63672 6.86328 2.28186 6.86328 1.8457C6.86328 1.40955 7.21814 1.05469 7.6543 1.05469C8.09045 1.05469 8.44531 1.40955 8.44531 1.8457C8.44531 2.28186 8.09045 2.63672 7.6543 2.63672Z" fill="#525252"/>
<path d="M7.6543 1.58203C7.5088 1.58203 7.39062 1.7002 7.39062 1.8457C7.39062 1.9912 7.5088 2.10938 7.6543 2.10938C7.7998 2.10938 7.91797 1.9912 7.91797 1.8457C7.91797 1.7002 7.7998 1.58203 7.6543 1.58203Z" fill="#525252"/>
<path d="M5.01758 2.63672C3.99997 2.63672 3.17188 3.46481 3.17188 4.48242C3.17188 5.50003 3.99997 6.32812 5.01758 6.32812C6.03519 6.32812 6.86328 5.50003 6.86328 4.48242C6.86328 3.46481 6.03519 2.63672 5.01758 2.63672Z" fill="#525252"/>
</g>
<defs>
<clipPath id="clip0">
<rect width="9" height="9" fill="white" transform="translate(0.5)"/>
</clipPath>
</defs>
</svg>
