<svg width="9" height="9" viewBox="0 0 9 9" fill="none" xmlns="http://www.w3.org/2000/svg">
<path d="M7.68164 0H1.31836C0.591476 0 0 0.591476 0 1.31836V7.68164C0 8.40852 0.591476 9 1.31836 9H7.68164C8.40852 9 9 8.40852 9 7.68164V1.31836C9 0.591476 8.40852 0 7.68164 0ZM3.18164 7.13672H2.12695V3.44531H3.18164V7.13672ZM3.18164 2.91797H2.12695V1.86328H3.18164V2.91797ZM6.87305 7.13672H5.81836V5.02734C5.81836 4.73662 5.58174 4.5 5.29102 4.5C5.00029 4.5 4.76367 4.73662 4.76367 5.02734V7.13672H3.70898V3.44531H4.76367V3.6441C5.03998 3.5582 5.21947 3.44531 5.55469 3.44531C6.26997 3.44607 6.87305 4.08774 6.87305 4.84607V7.13672Z" fill="#525252"/>
</svg>
