<svg width="23" height="23" viewBox="0 0 23 23" fill="none" xmlns="http://www.w3.org/2000/svg">
<path d="M19.6309 0H3.36914C1.51155 0 0 1.51155 0 3.36914V19.6309C0 21.4884 1.51155 23 3.36914 23H19.6309C21.4884 23 23 21.4884 23 19.6309V3.36914C23 1.51155 21.4884 0 19.6309 0ZM8.13086 18.2383H5.43555V8.80469H8.13086V18.2383ZM8.13086 7.45703H5.43555V4.76172H8.13086V7.45703ZM17.5645 18.2383H14.8691V12.8477C14.8691 12.1047 14.2645 11.5 13.5215 11.5C12.7785 11.5 12.1738 12.1047 12.1738 12.8477V18.2383H9.47852V8.80469H12.1738V9.31269C12.8799 9.09317 13.3386 8.80469 14.1953 8.80469C16.0232 8.80662 17.5645 10.4464 17.5645 12.3844V18.2383Z" fill="#EDEDED"/>
</svg>
