<svg width="14" height="14" viewBox="0 0 14 14" fill="none" xmlns="http://www.w3.org/2000/svg">
<g clip-path="url(#clip0)">
<path d="M11.7248 0.418457H2.41796C1.35483 0.418457 0.489746 1.28354 0.489746 2.34667V11.6535C0.489746 12.7166 1.35483 13.5817 2.41796 13.5817H11.7248C12.7879 13.5817 13.653 12.7166 13.653 11.6535V2.34667C13.653 1.28354 12.7879 0.418457 11.7248 0.418457ZM5.14316 10.8565H3.60059V5.45752H5.14316V10.8565ZM5.14316 4.68623H3.60059V3.14366H5.14316V4.68623ZM10.5422 10.8565H8.99959V7.77137C8.99959 7.34616 8.65351 7.00009 8.2283 7.00009C7.80309 7.00009 7.45702 7.34616 7.45702 7.77137V10.8565H5.91445V5.45752H7.45702V5.74826C7.86114 5.62262 8.12366 5.45752 8.61395 5.45752C9.6601 5.45862 10.5422 6.39712 10.5422 7.50624V10.8565Z" fill="white"/>
</g>
<defs>
<clipPath id="clip0">
<rect width="13.1633" height="13.1633" fill="white" transform="translate(0.489746 0.418457)"/>
</clipPath>
</defs>
</svg>
