<svg width="28" height="29" viewBox="0 0 28 29" fill="none" xmlns="http://www.w3.org/2000/svg">
<g clip-path="url(#clip0)">
<path d="M27.9834 5.99683L18.1404 14.4858L28 21.282V6.18816C28 6.12291 27.9935 6.05924 27.9834 5.99683Z" fill="#032C4B"/>
<path d="M17.2528 15.2512L16.012 16.3213C15.4291 16.8241 14.7145 17.0754 14.0001 17.0754C13.2856 17.0754 12.571 16.8241 11.9881 16.3213L10.7473 15.2512L0 22.6592V22.8118C0 23.4439 0.496617 23.9583 1.10698 23.9583H26.893C27.5033 23.9583 27.9999 23.4439 27.9999 22.8118V22.6592L17.2528 15.2512Z" fill="#032C4B"/>
<path d="M26.8971 5.04175C26.8957 5.04175 26.8943 5.04175 26.893 5.04175H1.107C1.10563 5.04175 1.10432 5.04175 1.10295 5.04175C0.946654 5.04237 0.879005 5.2486 0.999099 5.35219L11.1317 14.0909C11.1329 14.092 11.1341 14.093 11.1353 14.0941L12.6964 15.4405C13.4518 16.0919 14.5483 16.0919 15.3037 15.4405L27.0009 5.35219C27.121 5.24854 27.0533 5.04231 26.8971 5.04175Z" fill="#032C4B"/>
<path d="M0.0166797 5.99683C0.00650781 6.05924 0 6.12279 0 6.18816V21.282L9.85966 14.4858L0.0166797 5.99683Z" fill="#032C4B"/>
</g>
<defs>
<clipPath id="clip0">
<rect width="28" height="29" fill="white"/>
</clipPath>
</defs>
</svg>
