<svg width="8" height="9" viewBox="0 0 8 9" fill="none" xmlns="http://www.w3.org/2000/svg">
<g clip-path="url(#clip0)">
<path d="M7.63013 0.929325C7.5782 0.893044 7.51027 0.890176 7.45548 0.921502L0.582773 4.84876C0.526687 4.88072 0.494716 4.94272 0.501114 5.00697C0.507511 5.07122 0.550971 5.12571 0.612181 5.14601L2.66454 5.83007L3.45567 7.99253C3.47948 8.05758 3.54132 8.09992 3.60923 8.09992C3.61546 8.09992 3.62186 8.0996 3.62809 8.0988C3.6723 8.09372 3.7095 8.06994 3.73579 8.03696L4.90162 6.57582L6.50307 7.10964C6.52001 7.11539 6.53743 7.1181 6.55485 7.1181C6.58425 7.1181 6.61349 7.11011 6.63922 7.09462C6.68029 7.07001 6.70841 7.02862 6.71625 6.98132L7.69806 1.09044C7.70845 1.02807 7.68208 0.965438 7.63013 0.929325ZM3.708 5.95186C3.69121 5.97472 3.68051 6.0014 3.67716 6.02953L3.52935 7.24114L2.98124 5.74301L6.18157 2.61634L3.708 5.95186Z" fill="#525252"/>
</g>
<defs>
<clipPath id="clip0">
<rect width="7.2" height="7.2" fill="white" transform="translate(0.5 0.899902)"/>
</clipPath>
</defs>
</svg>
