<svg width="12" height="12" viewBox="0 0 12 12" fill="none" xmlns="http://www.w3.org/2000/svg">
<g clip-path="url(#clip0)">
<path d="M11.1526 0.777653C11.0766 0.724589 10.9773 0.720393 10.8971 0.76621L0.845225 6.51016C0.763195 6.55689 0.716435 6.64759 0.725792 6.74155C0.735148 6.83552 0.798713 6.91522 0.888238 6.9449L3.88999 7.9454L5.04708 11.1082C5.0819 11.2033 5.17235 11.2652 5.27168 11.2652C5.28079 11.2652 5.29014 11.2648 5.29925 11.2636C5.36392 11.2562 5.41833 11.2214 5.45679 11.1732L7.16191 9.03613L9.50416 9.81688C9.52893 9.82529 9.55442 9.82926 9.57988 9.82926C9.6229 9.82926 9.66566 9.81757 9.70329 9.79491C9.76335 9.75892 9.80448 9.69839 9.81595 9.62921L11.2519 1.01329C11.2671 0.922082 11.2286 0.83047 11.1526 0.777653ZM5.41613 8.12353C5.39158 8.15697 5.37592 8.19598 5.37103 8.23713L5.15485 10.0092L4.35318 7.81807L9.03394 3.24506L5.41613 8.12353Z" fill="white"/>
</g>
<defs>
<clipPath id="clip0">
<rect width="10.5306" height="10.5306" fill="white" transform="translate(0.724365 0.734619)"/>
</clipPath>
</defs>
</svg>
