<svg width="29" height="28" viewBox="0 0 29 28" fill="none" xmlns="http://www.w3.org/2000/svg">
<path d="M11.5962 16.406C8.92367 13.7335 8.32022 11.0609 8.18408 9.99015C8.14604 9.69408 8.24792 9.39717 8.45974 9.18684L10.6225 7.02503C10.9407 6.70708 10.9971 6.21157 10.7586 5.8302L7.31511 0.483137C7.05129 0.0608408 6.50959 -0.09157 6.06428 0.131204L0.536178 2.73473C0.176066 2.91206 -0.0357463 3.29467 0.00514037 3.69398C0.294797 6.44572 1.49446 13.2102 8.14208 19.8583C14.7897 26.5064 21.5532 27.7056 24.3064 27.9952C24.7057 28.0361 25.0883 27.8243 25.2656 27.4642L27.8691 21.9361C28.0911 21.4917 27.9397 20.9515 27.5191 20.6872L22.1721 17.2446C21.7909 17.0059 21.2954 17.0619 20.9773 17.3798L18.8154 19.5425C18.6051 19.7544 18.3082 19.8562 18.0121 19.8182C16.9414 19.6821 14.2688 19.0786 11.5962 16.406Z" fill="#032C4B"/>
<path d="M22.2087 14.9656C21.6755 14.9656 21.2432 14.5333 21.2432 14.0001C21.2387 10.0026 17.9992 6.7632 14.0018 6.75868C13.4685 6.75868 13.0363 6.3264 13.0363 5.79316C13.0363 5.25992 13.4685 4.82764 14.0018 4.82764C19.0653 4.83322 23.1687 8.9366 23.1742 14.0001C23.1742 14.5333 22.742 14.9656 22.2087 14.9656Z" fill="#032C4B"/>
<path d="M27.0363 14.9656C26.5031 14.9656 26.0708 14.5333 26.0708 14.0001C26.0634 7.33762 20.6642 1.93849 14.0018 1.93104C13.4685 1.93104 13.0363 1.49877 13.0363 0.965522C13.0363 0.432279 13.4685 0 14.0018 0C21.7303 0.00851391 27.9933 6.27158 28.0019 14.0001C28.0019 14.2561 27.9001 14.5017 27.7191 14.6828C27.538 14.8639 27.2924 14.9656 27.0363 14.9656Z" fill="#032C4B"/>
</svg>
