<svg width="11" height="11" viewBox="0 0 11 11" fill="none" xmlns="http://www.w3.org/2000/svg">
<g clip-path="url(#clip0)">
<path d="M1.06008 1.06002C2.47344 -0.35334 4.77318 -0.35334 6.18654 1.06002C7.59993 2.4734 7.59993 4.77313 6.18654 6.18651C4.77318 7.59989 2.47344 7.59989 1.06008 6.18651C-0.353302 4.7731 -0.353302 2.4734 1.06008 1.06002ZM4.88837 1.92245H2.25203V2.58154H4.88837V1.92245ZM4.88837 3.24062H2.25203V3.89971H4.88837V3.24062ZM4.88837 5.21788V4.55879H3.24066V5.21788H4.88837Z" fill="#EDEDED"/>
<path d="M10.6139 8.74967C11.1287 9.26446 11.1287 10.0991 10.6139 10.6138C10.0991 11.1286 9.26452 11.1286 8.74976 10.6138L6.8856 8.74967L8.74976 6.8855L10.6139 8.74967Z" fill="#EDEDED"/>
<path d="M7.08273 6.15063L7.81763 6.88556L6.88555 7.81763L6.15063 7.08273C6.49419 6.83145 6.81323 6.51897 7.08273 6.15063Z" fill="#EDEDED"/>
</g>
<defs>
<clipPath id="clip0">
<rect width="11" height="11" fill="white" transform="matrix(-1 0 0 1 11 0)"/>
</clipPath>
</defs>
</svg>
