<svg width="93" height="86" viewBox="0 0 93 86" fill="none" xmlns="http://www.w3.org/2000/svg">
<path d="M58.5178 42.0608C59.0246 42.3453 62.4356 43.9894 64.0835 44.7811C64.0899 45.4193 64.104 46.5228 64.1258 46.5416C64.3074 48.1218 64.6192 49.8774 64.7095 50.3732C64.5596 50.4561 63.7896 50.9585 63.7896 52.5212C63.7902 52.53 63.791 52.5382 63.7917 52.5471C63.7906 52.5881 63.7896 52.6294 63.7896 52.6718C64.121 57.0155 65.8524 55.1435 66.2095 57.0461C66.8033 60.2095 69.6107 62.4982 71.3582 63.2884C72.3682 63.7448 73.4076 63.9776 74.5 64C75.5923 63.9778 76.6317 63.7448 77.6417 63.2884C79.3892 62.4982 82.1966 60.2094 82.7905 57.0461C83.1475 55.1434 84.8789 57.0155 85.2105 52.6718C85.2105 52.6293 85.2093 52.5881 85.2082 52.5471C85.2089 52.5383 85.2097 52.5301 85.2105 52.5212C85.2105 50.9584 84.4402 50.4561 84.2904 50.3732C84.3809 49.8774 84.6926 48.1219 84.8741 46.5416C84.8958 46.5228 84.91 45.4194 84.9165 44.7811C85.8215 44.3462 87.2581 43.6544 88.4535 43.0718V47.2707C88.1215 47.4663 87.888 47.8114 87.888 48.223C87.888 48.5873 88.0734 48.896 88.3435 49.1C88.3435 49.1 87.8633 51.7934 87.708 52.5856C87.5527 53.3775 90.4467 53.2187 90.3164 52.5856C90.1863 51.9523 89.6812 49.1 89.6812 49.1C89.9515 48.896 90.1367 48.5873 90.1367 48.223C90.1367 47.8113 89.9043 47.4664 89.5725 47.2707V42.5232C90.018 42.3027 90.3496 42.1351 90.482 42.0608C90.8406 41.8594 91.0337 41.6019 90.9929 41.3343C91.0419 41.0553 90.8397 40.7554 90.2971 40.4903C86.4243 38.5989 76.5509 33.7782 75.5747 33.3135C75.1487 33.1109 74.7981 33.0213 74.5 33C74.2018 33.0213 73.8512 33.1109 73.4252 33.3135C72.449 33.7782 62.5757 38.599 58.703 40.4903C58.1601 40.7554 57.958 41.0553 58.0071 41.3343C57.9662 41.6019 58.1593 41.8594 58.5178 42.0608Z" fill="#032C4B"/>
<path fill-rule="evenodd" clip-rule="evenodd" d="M73.7703 86V76.6646C74.0099 76.849 74.2418 76.9578 74.4631 76.9736C74.4703 76.973 74.4776 76.9719 74.4849 76.9708C74.4899 76.9701 74.495 76.9693 74.5 76.9687C74.505 76.9693 74.5101 76.9701 74.5151 76.9708C74.5224 76.9719 74.5297 76.973 74.5369 76.9736C75.9626 76.8719 77.8316 72.9104 79.3409 69.7113C79.9346 68.4531 80.4726 67.3127 80.9061 66.5716C81.0623 66.2336 81.3977 66 81.7875 66C81.966 66 82.1328 66.0499 82.2767 66.1353C82.3758 66.1897 82.5604 66.2973 82.8074 66.4414C83.9449 67.1047 86.4063 68.5399 87.9366 69.1034C94.1883 71.4056 96.9999 73.7534 97 75.3544V75.512V85.8424V86H74.5369H74.5H74.4631H73.7703Z" fill="#032C4B"/>
<g clip-path="url(#clip0)">
<path d="M9.81839 14.8771C10.6485 15.3442 16.2364 18.0438 18.9359 19.3437C18.9465 20.3915 18.9697 22.2034 19.0053 22.2342C19.3028 24.8288 19.8136 27.7114 19.9615 28.5254C19.716 28.6615 18.4545 29.4864 18.4545 32.0523C18.4556 32.0668 18.4569 32.0801 18.458 32.0948C18.4562 32.1621 18.4545 32.2299 18.4545 32.2996C18.9975 39.4315 21.8339 36.3579 22.4188 39.4818C23.3916 44.6759 27.9906 48.4338 30.8533 49.7311C32.5079 50.4806 34.2106 50.8629 36.0002 50.8996C37.7897 50.863 39.4924 50.4806 41.147 49.7311C44.0097 48.4338 48.6087 44.6757 49.5816 39.4818C50.1665 36.3577 53.0028 39.4315 53.546 32.2996C53.546 32.2297 53.5442 32.1621 53.5423 32.0948C53.5434 32.0803 53.5447 32.067 53.546 32.0523C53.546 29.4862 52.2841 28.6615 52.0388 28.5254C52.187 27.7114 52.6977 24.829 52.995 22.2342C53.0305 22.2034 53.0538 20.3917 53.0644 19.3437C54.5471 18.6296 56.9003 17.4938 58.8587 16.5372V23.4314C58.3148 23.7525 57.9324 24.3192 57.9324 24.9949C57.9324 25.5932 58.236 26.1 58.6785 26.435C58.6785 26.435 57.8918 30.8573 57.6374 32.158C57.3831 33.4583 62.1239 33.1974 61.9105 32.158C61.6973 31.1182 60.87 26.435 60.87 26.435C61.3127 26.1 61.6161 25.5932 61.6161 24.9949C61.6161 24.319 61.2354 23.7527 60.6918 23.4314V15.6364C61.4217 15.2743 61.9648 14.999 62.1817 14.8771C62.7692 14.5465 63.0855 14.1237 63.0188 13.6843C63.099 13.2262 62.7677 12.7338 61.8788 12.2986C55.5344 9.193 39.3601 1.27767 37.7608 0.514811C37.063 0.182047 36.4886 0.0350376 36.0002 0C35.5117 0.0350376 34.9374 0.182047 34.2396 0.514811C32.6403 1.27767 16.4659 9.19319 10.1217 12.2986C9.2324 12.7338 8.9013 13.2262 8.98176 13.6843C8.91465 14.1237 9.2311 14.5465 9.81839 14.8771Z" fill="#032C4B"/>
<path d="M57.5329 59.4869C54.548 58.4107 49.3528 55.3081 48.4626 54.8295C48.232 54.6954 47.9646 54.6172 47.6786 54.6172C47.054 54.6172 46.5164 54.9837 46.2662 55.5141C43.8052 59.6339 39.2427 71.6139 36.0593 71.8362C36.0398 71.8347 36.0198 71.8308 36.0002 71.8286C35.9805 71.8308 35.9605 71.8347 35.941 71.8362C32.7576 71.6139 28.1951 59.6339 25.7342 55.5141C25.4837 54.9837 24.9463 54.6172 24.3217 54.6172C24.0355 54.6172 23.7683 54.6954 23.5375 54.8295C22.6475 55.3081 17.4521 58.4107 14.4675 59.4869C4.44894 63.0992 -0.0570068 66.7834 -0.0570068 69.2955C-0.0570068 69.3684 -0.0570068 69.4516 -0.0570068 69.5428C-0.0570068 72.6024 -0.0570068 85.7526 -0.0570068 85.7526C-0.0570068 85.9128 -0.0570068 85.9999 -0.0570068 85.9999H35.941H36.0002H36.0593H72.0573C72.0573 85.9999 72.0573 85.9128 72.0573 85.7526C72.0573 85.7526 72.0573 72.602 72.0573 69.5428C72.0573 69.4516 72.0573 69.3684 72.0573 69.2955C72.0571 66.7834 67.5514 63.0992 57.5329 59.4869Z" fill="#032C4B"/>
</g>
<defs>
<clipPath id="clip0">
<rect width="86" height="86" fill="white" transform="translate(-7)"/>
</clipPath>
</defs>
</svg>
