<svg width="93" height="93" viewBox="0 0 93 93" fill="none" xmlns="http://www.w3.org/2000/svg">
<g clip-path="url(#clip0)">
<path d="M58.5178 49.0608C59.0246 49.3453 62.4356 50.9894 64.0835 51.7811C64.0899 52.4193 64.104 53.5228 64.1258 53.5416C64.3074 55.1218 64.6192 56.8774 64.7095 57.3732C64.5596 57.4561 63.7896 57.9585 63.7896 59.5212C63.7902 59.53 63.791 59.5382 63.7917 59.5471C63.7906 59.5881 63.7896 59.6294 63.7896 59.6718C64.121 64.0155 65.8524 62.1435 66.2095 64.0461C66.8033 67.2095 69.6107 69.4982 71.3582 70.2884C72.3682 70.7448 73.4076 70.9776 74.5 71C75.5923 70.9778 76.6317 70.7448 77.6417 70.2884C79.3892 69.4982 82.1966 67.2094 82.7905 64.0461C83.1475 62.1434 84.8789 64.0155 85.2105 59.6718C85.2105 59.6293 85.2093 59.5881 85.2082 59.5471C85.2089 59.5383 85.2097 59.5301 85.2105 59.5212C85.2105 57.9584 84.4402 57.4561 84.2904 57.3732C84.3809 56.8774 84.6926 55.1219 84.8741 53.5416C84.8958 53.5228 84.91 52.4194 84.9165 51.7811C85.8215 51.3462 87.2581 50.6544 88.4535 50.0718V54.2707C88.1215 54.4663 87.888 54.8114 87.888 55.223C87.888 55.5873 88.0734 55.896 88.3435 56.1C88.3435 56.1 87.8633 58.7934 87.708 59.5856C87.5527 60.3775 90.4467 60.2187 90.3164 59.5856C90.1863 58.9523 89.6812 56.1 89.6812 56.1C89.9515 55.896 90.1367 55.5873 90.1367 55.223C90.1367 54.8113 89.9043 54.4664 89.5725 54.2707V49.5232C90.018 49.3027 90.3496 49.1351 90.482 49.0608C90.8406 48.8594 91.0337 48.6019 90.9929 48.3343C91.0419 48.0553 90.8397 47.7554 90.2971 47.4903C86.4243 45.5989 76.5509 40.7782 75.5747 40.3135C75.1487 40.1109 74.7981 40.0213 74.5 40C74.2018 40.0213 73.8512 40.1109 73.4252 40.3135C72.449 40.7782 62.5757 45.599 58.703 47.4903C58.1601 47.7554 57.958 48.0553 58.0071 48.3343C57.9662 48.6019 58.1593 48.8594 58.5178 49.0608Z" fill="#525252"/>
<path fill-rule="evenodd" clip-rule="evenodd" d="M73.7703 93V83.6646C74.0099 83.849 74.2418 83.9578 74.4631 83.9736C74.4703 83.973 74.4776 83.9719 74.4849 83.9708C74.4899 83.9701 74.495 83.9693 74.5 83.9687C74.505 83.9693 74.5101 83.9701 74.5151 83.9708C74.5224 83.9719 74.5297 83.973 74.5369 83.9736C75.9626 83.8719 77.8316 79.9104 79.3409 76.7113C79.9346 75.4531 80.4726 74.3127 80.9061 73.5716C81.0623 73.2336 81.3977 73 81.7875 73C81.966 73 82.1328 73.0499 82.2767 73.1353C82.3758 73.1897 82.5604 73.2973 82.8074 73.4414C83.9449 74.1047 86.4063 75.5399 87.9366 76.1034C94.1883 78.4056 96.9999 80.7534 97 82.3544V82.512V92.8424V93H74.5369H74.5H74.4631H73.7703Z" fill="#525252"/>
<g clip-path="url(#clip1)">
<path d="M9.81839 21.8771C10.6485 22.3442 16.2364 25.0438 18.9359 26.3437C18.9465 27.3915 18.9697 29.2034 19.0053 29.2342C19.3028 31.8288 19.8136 34.7114 19.9615 35.5254C19.716 35.6615 18.4545 36.4864 18.4545 39.0523C18.4556 39.0668 18.4569 39.0801 18.458 39.0948C18.4562 39.1621 18.4545 39.2299 18.4545 39.2996C18.9975 46.4315 21.8339 43.3579 22.4188 46.4818C23.3916 51.6759 27.9906 55.4338 30.8533 56.7311C32.5079 57.4806 34.2107 57.8629 36.0002 57.8996C37.7897 57.863 39.4924 57.4806 41.147 56.7311C44.0097 55.4338 48.6087 51.6757 49.5816 46.4818C50.1665 43.3577 53.0028 46.4315 53.546 39.2996C53.546 39.2297 53.5442 39.1621 53.5423 39.0948C53.5434 39.0803 53.5447 39.067 53.546 39.0523C53.546 36.4862 52.2841 35.6615 52.0388 35.5254C52.187 34.7114 52.6977 31.829 52.995 29.2342C53.0305 29.2034 53.0538 27.3917 53.0644 26.3437C54.5471 25.6296 56.9003 24.4938 58.8587 23.5372V30.4314C58.3148 30.7525 57.9324 31.3192 57.9324 31.9949C57.9324 32.5932 58.236 33.1 58.6785 33.435C58.6785 33.435 57.8918 37.8573 57.6374 39.158C57.3831 40.4583 62.1239 40.1974 61.9105 39.158C61.6973 38.1182 60.87 33.435 60.87 33.435C61.3127 33.1 61.6161 32.5932 61.6161 31.9949C61.6161 31.319 61.2354 30.7527 60.6918 30.4314V22.6364C61.4217 22.2743 61.9648 21.999 62.1817 21.8771C62.7692 21.5465 63.0855 21.1237 63.0188 20.6843C63.099 20.2262 62.7677 19.7338 61.8788 19.2986C55.5344 16.193 39.3601 8.27767 37.7608 7.51481C37.063 7.18205 36.4886 7.03504 36.0002 7C35.5117 7.03504 34.9374 7.18205 34.2396 7.51481C32.6403 8.27767 16.4659 16.1932 10.1217 19.2986C9.2324 19.7338 8.9013 20.2262 8.98176 20.6843C8.91465 21.1237 9.2311 21.5465 9.81839 21.8771Z" fill="#525252"/>
<path d="M57.5329 66.4869C54.548 65.4107 49.3528 62.3081 48.4626 61.8295C48.232 61.6954 47.9646 61.6172 47.6786 61.6172C47.054 61.6172 46.5164 61.9837 46.2662 62.5141C43.8052 66.6339 39.2427 78.6139 36.0593 78.8362C36.0398 78.8347 36.0198 78.8308 36.0002 78.8286C35.9805 78.8308 35.9605 78.8347 35.941 78.8362C32.7576 78.6139 28.1951 66.6339 25.7342 62.5141C25.4837 61.9837 24.9463 61.6172 24.3217 61.6172C24.0355 61.6172 23.7683 61.6954 23.5375 61.8295C22.6475 62.3081 17.4521 65.4107 14.4675 66.4869C4.44893 70.0992 -0.0570068 73.7834 -0.0570068 76.2955C-0.0570068 76.3684 -0.0570068 76.4516 -0.0570068 76.5428C-0.0570068 79.6024 -0.0570068 92.7526 -0.0570068 92.7526C-0.0570068 92.9128 -0.0570068 92.9999 -0.0570068 92.9999H35.941H36.0002H36.0593H72.0573C72.0573 92.9999 72.0573 92.9128 72.0573 92.7526C72.0573 92.7526 72.0573 79.602 72.0573 76.5428C72.0573 76.4516 72.0573 76.3684 72.0573 76.2955C72.0571 73.7834 67.5514 70.0992 57.5329 66.4869Z" fill="#525252"/>
</g>
</g>
<defs>
<clipPath id="clip0">
<rect width="93" height="93" fill="white"/>
</clipPath>
<clipPath id="clip1">
<rect width="86" height="86" fill="white" transform="translate(-7 7)"/>
</clipPath>
</defs>
</svg>
