<svg width="15" height="14" viewBox="0 0 15 14" fill="none" xmlns="http://www.w3.org/2000/svg">
<g clip-path="url(#clip0)">
<path d="M5.89029 12.4003C5.32106 12.4003 4.73517 12.3542 4.14576 12.2618C3.10765 12.0989 2.05678 11.5559 1.75941 11.3933L0.979492 10.9669L1.82388 10.6892C2.74691 10.3857 3.3084 10.1974 4.00346 9.90258C3.3075 9.56555 2.77112 8.95927 2.51292 8.17553L2.31648 7.57919L2.47757 7.60379C2.32482 7.44984 2.2042 7.29357 2.11071 7.15147C1.77819 6.64642 1.60214 6.02929 1.6396 5.50043L1.67656 4.97992L1.98818 5.10063C1.85672 4.85237 1.76172 4.58725 1.70588 4.30936C1.5698 3.63168 1.68369 2.91171 2.02665 2.28213L2.2981 1.78381L2.66115 2.21986C3.80933 3.59914 5.26362 4.41732 6.98966 4.65684C6.91916 4.17087 6.97199 3.70187 7.14683 3.28148C7.3504 2.792 7.71254 2.37693 8.19379 2.08107C8.72826 1.75257 9.37642 1.5934 10.0189 1.63286C10.7005 1.67474 11.3193 1.93013 11.8108 2.37191C12.0508 2.30955 12.2277 2.24296 12.4667 2.15298C12.6105 2.09885 12.7736 2.03739 12.9776 1.96709L13.7296 1.70798L13.2393 3.10855C13.2716 3.10584 13.3049 3.10353 13.3398 3.10202L14.1428 3.06567L13.6682 3.71433C13.641 3.75149 13.634 3.76203 13.6244 3.77659C13.5861 3.83424 13.5385 3.90594 12.8871 4.77585C12.724 4.99368 12.6425 5.27738 12.6577 5.57485C12.7154 6.70527 12.5767 7.72802 12.2452 8.6146C11.9317 9.45337 11.4458 10.173 10.8013 10.7536C10.0037 11.4719 8.98666 11.9637 7.77832 12.2151C7.1856 12.3385 6.54909 12.4003 5.89029 12.4003Z" fill="white"/>
</g>
<defs>
<clipPath id="clip0">
<rect width="13.1633" height="13.1633" fill="white" transform="translate(0.979492 0.418457)"/>
</clipPath>
</defs>
</svg>
