<svg width="23" height="19" viewBox="0 0 23 19" fill="none" xmlns="http://www.w3.org/2000/svg">
<path d="M8.58054 19C7.58595 19 6.56223 18.9187 5.53237 18.7558C3.71849 18.4685 1.88232 17.5108 1.36274 17.2241L0 16.472L1.47539 15.9823C3.08818 15.4471 4.06926 15.115 5.28372 14.595C4.06768 14.0006 3.13047 12.9313 2.67932 11.5491L2.3361 10.4974L2.61756 10.5408C2.35066 10.2693 2.13991 9.9937 1.97655 9.74308C1.39555 8.85237 1.08794 7.76399 1.1534 6.83131L1.21797 5.91332L1.76247 6.12621C1.53277 5.68838 1.36677 5.2208 1.26921 4.73072C1.03144 3.53555 1.23043 2.26581 1.82968 1.15547L2.30398 0.276628L2.93832 1.04566C4.94453 3.47816 7.48558 4.92112 10.5015 5.34354C10.3783 4.48648 10.4706 3.65935 10.7761 2.91795C11.1318 2.05469 11.7645 1.32267 12.6054 0.800888C13.5393 0.221545 14.6718 -0.0591827 15.7943 0.0104236C16.9853 0.0842806 18.0665 0.534684 18.9253 1.31381C19.3447 1.20383 19.6537 1.0864 20.0713 0.927703C20.3226 0.832238 20.6076 0.723843 20.9641 0.599863L22.2781 0.142906L21.4213 2.61295C21.4778 2.60817 21.536 2.6041 21.5969 2.60144L23 2.53733L22.1707 3.68131C22.1232 3.74684 22.111 3.76544 22.0942 3.79112C22.0273 3.89279 21.9442 4.01925 20.8059 5.55342C20.5209 5.93758 20.3786 6.43793 20.4051 6.96255C20.506 8.95615 20.2636 10.7599 19.6844 12.3235C19.1366 13.8027 18.2876 15.0719 17.1614 16.0958C15.7678 17.3626 13.9908 18.2299 11.8795 18.6734C10.8438 18.8909 9.73165 19 8.58054 19Z" fill="#EDEDED"/>
</svg>
