<svg width="9" height="9" viewBox="0 0 9 9" fill="none" xmlns="http://www.w3.org/2000/svg">
<g clip-path="url(#clip0)">
<path d="M3.35761 8.19215C2.96843 8.19215 2.56784 8.16063 2.16485 8.09746C1.45506 7.98609 0.736562 7.61482 0.533247 7.50365L0 7.2121L0.577329 7.02225C1.20842 6.81474 1.59232 6.686 2.06755 6.4844C1.59171 6.25396 1.22497 5.83943 1.04843 5.30357L0.914128 4.89584L1.02427 4.91266C0.919827 4.8074 0.837361 4.70056 0.773434 4.6034C0.546087 4.25809 0.425719 3.83614 0.45133 3.47455L0.476599 3.11867L0.689664 3.2012C0.599783 3.03146 0.534826 2.85019 0.496649 2.66019C0.403609 2.19684 0.481474 1.70459 0.715962 1.27413L0.901562 0.933416L1.14978 1.23156C1.93482 2.1746 2.92915 2.73401 4.10928 2.89777C4.06108 2.5655 4.0972 2.24484 4.21674 1.95741C4.35592 1.62274 4.60353 1.33895 4.93257 1.13666C5.298 0.912061 5.74116 0.803228 6.1804 0.830213C6.64643 0.858846 7.06954 1.03346 7.40558 1.33552C7.56969 1.29287 7.69061 1.24735 7.85403 1.18583C7.95235 1.14882 8.06386 1.10679 8.20339 1.05873L8.71755 0.881574L8.38226 1.83917C8.40437 1.83732 8.42717 1.83574 8.45099 1.83471L9.00003 1.80985L8.67553 2.25335C8.65692 2.27876 8.65218 2.28597 8.64559 2.29593C8.61943 2.33534 8.58688 2.38437 8.14146 2.97914C8.02994 3.12807 7.97426 3.32205 7.98463 3.52543C8.02411 4.29832 7.92928 4.9976 7.70262 5.60377C7.48825 6.17726 7.15605 6.66931 6.71537 7.06626C6.17003 7.55735 5.47467 7.8936 4.6485 8.06553C4.24325 8.14985 3.80805 8.19215 3.35761 8.19215Z" fill="#525252"/>
</g>
<defs>
<clipPath id="clip0">
<rect width="9" height="9" fill="white"/>
</clipPath>
</defs>
</svg>
