<svg width="9" height="9" viewBox="0 0 9 9" fill="none" xmlns="http://www.w3.org/2000/svg">
<path d="M4.50112 0H4.49888C2.01769 0 0 2.01825 0 4.5C0 5.48438 0.31725 6.39675 0.856687 7.13756L0.295875 8.80931L2.02556 8.25638C2.73712 8.72775 3.58594 9 4.50112 9C6.98231 9 9 6.98119 9 4.5C9 2.01881 6.98231 0 4.50112 0ZM7.11956 6.35456C7.011 6.66113 6.58012 6.91537 6.23644 6.98962C6.00131 7.03969 5.69419 7.07963 4.66031 6.651C3.33787 6.10313 2.48625 4.75931 2.41988 4.67212C2.35631 4.58494 1.8855 3.96056 1.8855 3.31481C1.8855 2.66906 2.21344 2.35462 2.34562 2.21962C2.45419 2.10881 2.63363 2.05819 2.80575 2.05819C2.86144 2.05819 2.9115 2.061 2.9565 2.06325C3.08869 2.06888 3.15506 2.07675 3.24225 2.28544C3.35081 2.547 3.61519 3.19275 3.64669 3.25912C3.67875 3.3255 3.71081 3.4155 3.66581 3.50269C3.62363 3.59269 3.5865 3.63262 3.52012 3.70913C3.45375 3.78562 3.39075 3.84413 3.32437 3.92625C3.26362 3.99769 3.195 4.07419 3.2715 4.20638C3.348 4.33575 3.61238 4.76719 4.00163 5.11369C4.50394 5.56087 4.91119 5.70375 5.05687 5.7645C5.16544 5.8095 5.29481 5.79881 5.37413 5.71444C5.47481 5.60588 5.59912 5.42588 5.72569 5.24869C5.81569 5.12156 5.92931 5.10581 6.04856 5.15081C6.17006 5.193 6.813 5.51081 6.94519 5.57662C7.07737 5.643 7.16456 5.6745 7.19662 5.73019C7.22812 5.78588 7.22812 6.04744 7.11956 6.35456Z" fill="#525252"/>
</svg>
