<svg width="14" height="14" viewBox="0 0 14 14" fill="none" xmlns="http://www.w3.org/2000/svg">
<g clip-path="url(#clip0)">
<path d="M10.6069 0.418457H4.03569C2.22835 0.418457 0.744873 1.90194 0.744873 3.71972V10.2909C0.744873 12.0982 2.22835 13.5817 4.03569 13.5817H10.6069C12.4247 13.5817 13.9081 12.0982 13.9081 10.2805V3.71972C13.9081 1.90194 12.4247 0.418457 10.6069 0.418457ZM6.9713 3.12424C6.9922 2.80038 7.29516 2.9153 7.45187 2.8944C9.41591 2.95709 11.1083 4.72263 11.0874 6.62399C11.0874 6.81204 11.1501 7.08366 10.868 7.08366C10.5964 7.08366 10.6696 6.80159 10.6382 6.61355C10.377 4.59727 9.4368 3.64659 7.38918 3.33318C7.22203 3.31228 6.96086 3.34363 6.9713 3.12424ZM9.90692 6.70757C9.59351 6.74936 9.65619 6.47773 9.62485 6.30014C9.41591 5.06739 8.97713 4.61816 7.71304 4.34654C7.525 4.30475 7.23248 4.33609 7.28471 4.05402C7.3265 3.7824 7.58768 3.87642 7.78617 3.89732C9.05026 4.04358 10.0845 5.11962 10.0741 6.30014C10.0532 6.4255 10.1368 6.66578 9.90692 6.70757ZM9.12339 6.05985C9.12339 6.22701 9.1025 6.38371 8.91445 6.40461C8.77864 6.4255 8.69506 6.31058 8.67417 6.17477C8.62193 5.67331 8.35031 5.37035 7.82796 5.28677C7.67125 5.26588 7.525 5.21364 7.59812 5.0047C7.65036 4.86889 7.77572 4.848 7.91154 4.848C8.47568 4.83755 9.12339 5.49571 9.12339 6.05985ZM11.1083 9.91481C10.8889 10.5103 10.1472 11.1162 9.50993 11.1058C9.41591 11.0849 9.23831 11.0535 9.0816 10.9909C6.2818 9.81034 4.24463 7.86719 3.09545 5.08828C2.70891 4.15849 3.11635 3.36452 4.08792 3.05111C4.26552 2.98843 4.43267 2.98843 4.61027 3.05111C5.02816 3.19737 6.08331 4.62861 6.1042 5.04649C6.12509 5.37035 5.89526 5.54795 5.67587 5.69421C5.24754 5.97628 5.24754 6.33148 5.43559 6.73891C5.84302 7.63736 6.54297 8.26418 7.45187 8.66116C7.77572 8.80742 8.09958 8.79698 8.31897 8.46267C8.71596 7.86719 9.20697 7.89853 9.73977 8.26418C10.0114 8.45222 10.283 8.62982 10.5337 8.82832C10.8785 9.11039 11.3173 9.34022 11.1083 9.91481Z" fill="white"/>
</g>
<defs>
<clipPath id="clip0">
<rect width="13.1633" height="13.1633" fill="white" transform="translate(0.744873 0.418457)"/>
</clipPath>
</defs>
</svg>
