<svg width="10" height="9" viewBox="0 0 10 9" fill="none" xmlns="http://www.w3.org/2000/svg">
<g clip-path="url(#clip0)">
<path d="M7.24286 0H2.75C1.51429 0 0.5 1.01429 0.5 2.25714V6.75C0.5 7.98571 1.51429 9 2.75 9H7.24286C8.48571 9 9.5 7.98571 9.5 6.74286V2.25714C9.5 1.01429 8.48571 0 7.24286 0ZM4.75714 1.85C4.77143 1.62857 4.97857 1.70714 5.08571 1.69286C6.42857 1.73571 7.58571 2.94286 7.57143 4.24286C7.57143 4.37143 7.61429 4.55714 7.42143 4.55714C7.23571 4.55714 7.28571 4.36429 7.26429 4.23571C7.08571 2.85714 6.44286 2.20714 5.04286 1.99286C4.92857 1.97857 4.75 2 4.75714 1.85ZM6.76429 4.3C6.55 4.32857 6.59286 4.14286 6.57143 4.02143C6.42857 3.17857 6.12857 2.87143 5.26429 2.68571C5.13571 2.65714 4.93571 2.67857 4.97143 2.48571C5 2.3 5.17857 2.36429 5.31429 2.37857C6.17857 2.47857 6.88572 3.21429 6.87857 4.02143C6.86429 4.10714 6.92143 4.27143 6.76429 4.3ZM6.22857 3.85714C6.22857 3.97143 6.21429 4.07857 6.08571 4.09286C5.99286 4.10714 5.93571 4.02857 5.92143 3.93571C5.88571 3.59286 5.7 3.38571 5.34286 3.32857C5.23571 3.31429 5.13571 3.27857 5.18571 3.13571C5.22143 3.04286 5.30714 3.02857 5.4 3.02857C5.78571 3.02143 6.22857 3.47143 6.22857 3.85714ZM7.58571 6.49286C7.43571 6.9 6.92857 7.31429 6.49286 7.30714C6.42857 7.29286 6.30714 7.27143 6.2 7.22857C4.28571 6.42143 2.89286 5.09286 2.10714 3.19286C1.84286 2.55714 2.12143 2.01429 2.78571 1.8C2.90714 1.75714 3.02143 1.75714 3.14286 1.8C3.42857 1.9 4.15 2.87857 4.16429 3.16429C4.17857 3.38571 4.02143 3.50714 3.87143 3.60714C3.57857 3.8 3.57857 4.04286 3.70714 4.32143C3.98571 4.93571 4.46429 5.36429 5.08571 5.63571C5.30714 5.73571 5.52857 5.72857 5.67857 5.5C5.95 5.09286 6.28571 5.11429 6.65 5.36429C6.83571 5.49286 7.02143 5.61429 7.19286 5.75C7.42857 5.94286 7.72857 6.1 7.58571 6.49286Z" fill="#525252"/>
</g>
<defs>
<clipPath id="clip0">
<rect width="9" height="9" fill="white" transform="translate(0.5)"/>
</clipPath>
</defs>
</svg>
