<svg width="14" height="14" viewBox="0 0 14 14" fill="none" xmlns="http://www.w3.org/2000/svg">
<path d="M6.58327 0.418457H6.57998C2.95104 0.418457 0 3.37032 0 7.00009C0 8.43982 0.464005 9.77424 1.25298 10.8577L0.432742 13.3028L2.96256 12.4941C4.00328 13.1835 5.24474 13.5817 6.58327 13.5817C10.2122 13.5817 13.1633 10.629 13.1633 7.00009C13.1633 3.37114 10.2122 0.418457 6.58327 0.418457ZM10.413 9.71254C10.2542 10.1609 9.62399 10.5328 9.12132 10.6414C8.77742 10.7146 8.32823 10.773 6.8161 10.1461C4.88192 9.34479 3.63635 7.37935 3.53927 7.25183C3.44631 7.12431 2.7577 6.21111 2.7577 5.26665C2.7577 4.32219 3.23734 3.86229 3.43067 3.66485C3.58946 3.50277 3.8519 3.42873 4.10365 3.42873C4.18509 3.42873 4.25831 3.43284 4.32413 3.43613C4.51747 3.44436 4.61454 3.45588 4.74206 3.7611C4.90085 4.14366 5.28752 5.08812 5.33359 5.1852C5.38048 5.28228 5.42738 5.41391 5.36156 5.54143C5.29986 5.67307 5.24556 5.73148 5.14848 5.84336C5.0514 5.95525 4.95926 6.04081 4.86218 6.16093C4.77333 6.26541 4.67296 6.3773 4.78484 6.57064C4.89673 6.75986 5.2834 7.39087 5.85271 7.89766C6.58739 8.55171 7.18303 8.76067 7.39611 8.84952C7.55489 8.91534 7.74411 8.89971 7.86011 8.7763C8.00737 8.61752 8.18919 8.35426 8.3743 8.09511C8.50593 7.90917 8.67212 7.88614 8.84653 7.95195C9.02424 8.01366 9.96459 8.47848 10.1579 8.57474C10.3513 8.67182 10.4788 8.71789 10.5257 8.79934C10.5717 8.88079 10.5717 9.26334 10.413 9.71254Z" fill="white"/>
</svg>
