<svg width="99" height="99" viewBox="0 0 99 99" fill="none" xmlns="http://www.w3.org/2000/svg">
<g filter="url(#filter0_d)">
<path d="M44.5179 67.4285H54.4822V85.6963H44.5179V67.4285Z" fill="#525252"/>
<path d="M3 89.0178H24.5893V92.3393H3V89.0178Z" fill="#525252"/>
<path d="M27.9107 42.5178H71.0893V45.8393H27.9107V42.5178Z" fill="#525252"/>
<path d="M24.5893 42.518C22.7549 42.518 21.2679 41.0309 21.2679 39.1965H10.0348C9.40527 39.1945 8.82941 39.5507 8.55011 40.1149L5.68704 45.8394H24.5893V42.518Z" fill="#525252"/>
<path d="M67.7678 85.6965V49.1608H31.2321V85.6965H41.1964V65.7679C41.1964 64.8507 41.9399 64.1072 42.8571 64.1072H56.1428C57.06 64.1072 57.8035 64.8507 57.8035 65.7679V85.6965H67.7678ZM46.1785 57.4643C46.1785 58.3815 45.435 59.125 44.5178 59.125C43.6006 59.125 42.8571 58.3815 42.8571 57.4643V54.1429C42.8571 53.2257 43.6006 52.4822 44.5178 52.4822C45.435 52.4822 46.1785 53.2257 46.1785 54.1429V57.4643ZM56.1428 57.4643C56.1428 58.3815 55.3993 59.125 54.4821 59.125C53.5649 59.125 52.8214 58.3815 52.8214 57.4643V54.1429C52.8214 53.2257 53.5649 52.4822 54.4821 52.4822C55.3993 52.4822 56.1428 53.2257 56.1428 54.1429V57.4643Z" fill="#525252"/>
<path d="M65.9062 26.3974C65.5944 26.0855 65.1714 25.9104 64.7304 25.9108H32.7882C32.2955 25.911 31.8282 26.13 31.5128 26.5086L26.4742 32.5536H72.0625L65.9062 26.3974Z" fill="#525252"/>
<path d="M71.0893 6.82579H71.1109L49.5 1L27.9107 6.79921L49.5083 12.625L71.0893 6.82579Z" fill="#525252"/>
<path d="M74.4107 45.8394H93.313L90.4499 40.1149C90.1706 39.5507 89.5947 39.1945 88.9652 39.1965H77.7321C77.7321 41.0309 76.2451 42.518 74.4107 42.518V45.8394Z" fill="#525252"/>
<path d="M48.6464 15.8334L36.2143 12.4954V22.5892H62.7857V12.4954L50.3536 15.8334C49.7945 15.9839 49.2055 15.9839 48.6464 15.8334Z" fill="#525252"/>
<path d="M24.5893 35.875H74.4107V39.1964H24.5893V35.875Z" fill="#525252"/>
<path d="M27.9107 49.1608H4.66071V85.6965H27.9107V49.1608ZM12.9643 79.0536C12.9643 79.9708 12.2207 80.7143 11.3036 80.7143C10.3864 80.7143 9.64285 79.9708 9.64285 79.0536V75.7322C9.64285 74.815 10.3864 74.0715 11.3036 74.0715C12.2207 74.0715 12.9643 74.815 12.9643 75.7322V79.0536ZM12.9643 69.0893C12.9643 70.0065 12.2207 70.75 11.3036 70.75C10.3864 70.75 9.64285 70.0065 9.64285 69.0893V65.7679C9.64285 64.8507 10.3864 64.1072 11.3036 64.1072C12.2207 64.1072 12.9643 64.8507 12.9643 65.7679V69.0893ZM12.9643 59.125C12.9643 60.0422 12.2207 60.7858 11.3036 60.7858C10.3864 60.7858 9.64285 60.0422 9.64285 59.125V55.8036C9.64285 54.8864 10.3864 54.1429 11.3036 54.1429C12.2207 54.1429 12.9643 54.8864 12.9643 55.8036V59.125ZM22.9286 79.0536C22.9286 79.9708 22.185 80.7143 21.2678 80.7143C20.3507 80.7143 19.6071 79.9708 19.6071 79.0536V75.7322C19.6071 74.815 20.3507 74.0715 21.2678 74.0715C22.185 74.0715 22.9286 74.815 22.9286 75.7322V79.0536ZM22.9286 69.0893C22.9286 70.0065 22.185 70.75 21.2678 70.75C20.3507 70.75 19.6071 70.0065 19.6071 69.0893V65.7679C19.6071 64.8507 20.3507 64.1072 21.2678 64.1072C22.185 64.1072 22.9286 64.8507 22.9286 65.7679V69.0893ZM22.9286 59.125C22.9286 60.0422 22.185 60.7858 21.2678 60.7858C20.3507 60.7858 19.6071 60.0422 19.6071 59.125V55.8036C19.6071 54.8864 20.3507 54.1429 21.2678 54.1429C22.185 54.1429 22.9286 54.8864 22.9286 55.8036V59.125Z" fill="#525252"/>
<path d="M74.4107 89.0178H96V92.3393H74.4107V89.0178Z" fill="#525252"/>
<path d="M56.1429 89.0178H42.8571H27.9107V94H71.0909L71.0893 89.0178H56.1429Z" fill="#525252"/>
<path d="M94.3393 49.1608H71.0893V85.6965H94.3393V49.1608ZM79.3929 79.0536C79.3929 79.9708 78.6493 80.7143 77.7322 80.7143C76.815 80.7143 76.0714 79.9708 76.0714 79.0536V75.7322C76.0714 74.815 76.815 74.0715 77.7322 74.0715C78.6493 74.0715 79.3929 74.815 79.3929 75.7322V79.0536ZM79.3929 69.0893C79.3929 70.0065 78.6493 70.75 77.7322 70.75C76.815 70.75 76.0714 70.0065 76.0714 69.0893V65.7679C76.0714 64.8507 76.815 64.1072 77.7322 64.1072C78.6493 64.1072 79.3929 64.8507 79.3929 65.7679V69.0893ZM79.3929 59.125C79.3929 60.0422 78.6493 60.7858 77.7322 60.7858C76.815 60.7858 76.0714 60.0422 76.0714 59.125V55.8036C76.0714 54.8864 76.815 54.1429 77.7322 54.1429C78.6493 54.1429 79.3929 54.8864 79.3929 55.8036V59.125ZM89.3572 79.0536C89.3572 79.9708 88.6136 80.7143 87.6964 80.7143C86.7793 80.7143 86.0357 79.9708 86.0357 79.0536V75.7322C86.0357 74.815 86.7793 74.0715 87.6964 74.0715C88.6136 74.0715 89.3572 74.815 89.3572 75.7322V79.0536ZM89.3572 69.0893C89.3572 70.0065 88.6136 70.75 87.6964 70.75C86.7793 70.75 86.0357 70.0065 86.0357 69.0893V65.7679C86.0357 64.8507 86.7793 64.1072 87.6964 64.1072C88.6136 64.1072 89.3572 64.8507 89.3572 65.7679V69.0893ZM89.3572 59.125C89.3572 60.0422 88.6136 60.7858 87.6964 60.7858C86.7793 60.7858 86.0357 60.0422 86.0357 59.125V55.8036C86.0357 54.8864 86.7793 54.1429 87.6964 54.1429C88.6136 54.1429 89.3572 54.8864 89.3572 55.8036V59.125Z" fill="#525252"/>
<path d="M71.2188 10.2003H67.8974V16.3948V16.4064C67.8956 18.1118 68.7478 19.7048 70.1676 20.6495C70.6612 20.9788 71.2931 21.0197 71.825 20.7569C72.357 20.494 72.7084 19.9673 72.7467 19.3752C72.7851 18.783 72.5046 18.2154 72.011 17.8861C71.5155 17.5569 71.218 17.0013 71.2188 16.4064V16.3948V10.2003Z" fill="#525252"/>
</g>
<defs>
<filter id="filter0_d" x="0" y="0" width="99" height="99" filterUnits="userSpaceOnUse" color-interpolation-filters="sRGB">
<feFlood flood-opacity="0" result="BackgroundImageFix"/>
<feColorMatrix in="SourceAlpha" type="matrix" values="0 0 0 0 0 0 0 0 0 0 0 0 0 0 0 0 0 0 127 0"/>
<feOffset dy="2"/>
<feGaussianBlur stdDeviation="1.5"/>
<feColorMatrix type="matrix" values="0 0 0 0 0 0 0 0 0 0 0 0 0 0 0 0 0 0 0.25 0"/>
<feBlend mode="normal" in2="BackgroundImageFix" result="effect1_dropShadow"/>
<feBlend mode="normal" in="SourceGraphic" in2="effect1_dropShadow" result="shape"/>
</filter>
</defs>
</svg>
