<svg width="93" height="93" viewBox="0 0 93 93" fill="none" xmlns="http://www.w3.org/2000/svg">
<g clip-path="url(#clip0)">
<path d="M84.8821 3.04578H40.225C39.1119 3.04578 38.2097 3.94798 38.2097 5.06108V20.7641L40.4447 19.3763C41.0135 19.023 41.6209 18.7847 42.2401 18.6538V7.07637H82.8666V36.1417H42.2403V31.4391L38.2097 33.9417V38.1572C38.2097 39.2703 39.1119 40.1725 40.225 40.1725H84.8821C85.995 40.1725 86.8974 39.2703 86.8974 38.1572V5.06108C86.8974 3.94798 85.995 3.04578 84.8821 3.04578Z" fill="#032C4B"/>
<path d="M55.5821 14.2326C55.0519 13.5602 54.0772 13.4452 53.405 13.9751L46.4632 19.4484C47.126 19.8816 47.7075 20.462 48.1527 21.1789C48.2789 21.3818 48.3884 21.5905 48.4858 21.8021L55.3247 16.4098C55.9972 15.8797 56.1123 14.9049 55.5821 14.2326Z" fill="#032C4B"/>
<path d="M22.0757 11.6014C25.2793 11.6014 27.8763 9.00431 27.8763 5.80068C27.8763 2.59705 25.2793 0 22.0757 0C18.872 0 16.275 2.59705 16.275 5.80068C16.275 9.00431 18.872 11.6014 22.0757 11.6014Z" fill="#032C4B"/>
<path d="M45.7752 22.6556C44.9598 21.3425 43.2346 20.9389 41.9211 21.7541L36.2529 25.2734C36.2292 20.5727 36.2418 23.0674 36.2267 20.0402C36.2084 16.4065 33.2373 13.4501 29.6034 13.4501H26.8499C24.4975 19.551 25.2553 17.2863 23.2585 22.4649L24.0982 18.8083C24.1563 18.5344 24.1142 18.2488 23.9792 18.0036L22.8414 15.9342L23.8512 14.098C24.0018 13.8241 23.8032 13.4884 23.4906 13.4884H20.7168C20.4044 13.4884 20.2055 13.8241 20.3562 14.098L21.368 15.938L20.228 18.0112C20.0958 18.2519 20.0525 18.5316 20.1059 18.8008L20.8334 22.4649C20.4413 21.4479 17.7303 14.4171 17.3574 13.4501H14.5481C10.9144 13.4501 7.94313 16.4063 7.92478 20.0402L7.82143 40.6018C7.8138 42.1476 9.0604 43.4069 10.6062 43.4147C10.6111 43.4147 10.6156 43.4147 10.6205 43.4147C12.1595 43.4147 13.4112 42.1709 13.4189 40.63L13.5222 20.0683C13.5222 20.065 13.5222 20.0618 13.5222 20.0587C13.5266 19.7535 13.7763 19.509 14.0815 19.5114C14.3866 19.5136 14.6326 19.7617 14.6326 20.0669L14.6339 49.1985C17.1961 49.0895 19.5701 50.0137 21.3511 51.6367V40.2718H22.8011V53.3087C23.8225 54.8105 24.4203 56.6223 24.4203 58.5715C24.4203 60.3474 23.924 62.0096 23.0636 63.4269C23.9475 63.4311 24.8059 63.5485 25.6245 63.765C26.7282 62.8075 28.0558 62.1028 29.5184 61.7422C29.5184 11.0025 29.4575 42.3745 29.4575 20.0707C29.4575 19.7475 29.7189 19.4856 30.042 19.4851C30.3652 19.4843 30.6276 19.7452 30.6291 20.0683C30.6389 22.0313 30.6698 28.1677 30.6805 30.3039C30.6856 31.3173 31.2381 32.2489 32.1251 32.7392C33.0104 33.2285 34.0932 33.2031 34.9556 32.6676L44.8739 26.5095C46.1868 25.6944 46.5906 23.9687 45.7752 22.6556Z" fill="#032C4B"/>
<path d="M77.9638 64.7791C81.3548 64.7791 84.1038 62.0302 84.1038 58.6391C84.1038 55.2481 81.3548 52.4991 77.9638 52.4991C74.5728 52.4991 71.8238 55.2481 71.8238 58.6391C71.8238 62.0302 74.5728 64.7791 77.9638 64.7791Z" fill="#032C4B"/>
<path d="M92.9016 73.7117C92.8821 69.8653 89.7372 66.736 85.8906 66.736C84.231 66.736 71.98 66.736 70.491 66.736C71.1516 68.0198 71.527 69.4731 71.527 71.0136C71.527 72.6493 71.0902 74.3581 70.1647 75.8783C73.5985 76.0171 76.6072 77.86 78.3656 80.5822H85.7364V73.7834C85.7364 73.4488 86.0016 73.1746 86.336 73.1631C86.6704 73.1517 86.9539 73.4074 86.9764 73.7411C86.9764 73.7411 86.9764 73.7413 86.9764 73.7415L87.011 80.5822H92.9362L92.9016 73.7117Z" fill="#032C4B"/>
<path d="M52.7609 71.0134C52.7609 69.446 53.1492 67.9686 53.8315 66.6686C49.8337 66.6686 45.1396 66.6686 40.1599 66.6686C40.7906 67.929 41.1475 69.3489 41.1475 70.8516C41.1475 72.6173 40.6516 74.2893 39.7908 75.707C42.6168 75.7204 45.2241 76.8946 47.1079 78.8434C48.9341 77.0593 51.4235 75.9528 54.162 75.938C53.2112 74.4028 52.7609 72.6791 52.7609 71.0134Z" fill="#032C4B"/>
<path d="M48.1018 52.4314C44.7109 52.4314 41.9616 55.18 41.9616 58.5714C41.9616 61.955 44.7057 64.7114 48.1018 64.7114C51.4654 64.7114 54.2418 61.9931 54.2418 58.5714C54.2418 55.1838 51.4981 52.4314 48.1018 52.4314Z" fill="#032C4B"/>
<path d="M22.3812 70.8516C22.3812 69.3527 22.7365 67.9357 23.364 66.6775C23.0994 66.6644 24.2126 66.6686 7.10994 66.6686C3.28315 66.6686 0.118428 69.7816 0.0989924 73.6443L0.0641174 80.5822C2.77183 80.5822 3.31657 80.5822 5.98941 80.5822L6.0241 73.6743C6.02592 73.3321 6.30401 73.0563 6.64585 73.0573C6.9877 73.0583 7.26416 73.3355 7.26416 73.6774V80.5822H15.57C17.3601 77.7207 20.438 75.9239 23.788 75.7859C22.8787 74.3215 22.3812 72.6317 22.3812 70.8516Z" fill="#032C4B"/>
<path d="M15.0373 52.4314C11.6464 52.4314 8.89729 55.1803 8.89729 58.5714C8.89729 61.947 11.6302 64.7114 15.0373 64.7114C18.4042 64.7114 21.1774 61.984 21.1774 58.5714C21.1774 55.1802 18.4283 52.4314 15.0373 52.4314Z" fill="#032C4B"/>
<path d="M76.749 86.0625C76.73 82.2157 73.5849 79.0864 69.7383 79.0864C69.3303 79.0864 54.6677 79.0864 54.2067 79.0864C50.3603 79.0864 47.0136 82.2155 46.9942 86.0621L46.9442 85.9003C46.9251 82.0691 43.7944 78.9246 39.9334 78.9246C35.4753 78.9246 29.0723 78.9246 24.4019 78.9246C20.5555 78.9246 17.2088 82.0537 17.1893 85.9003L17.1545 92.9999H23.0798L23.1145 85.9301C23.1159 85.6354 23.3555 85.3979 23.6499 85.3986C23.9444 85.3993 24.1825 85.6383 24.1825 85.9328V93C27.6556 93 36.6218 93 39.8748 93V85.9328C39.8748 85.6175 40.13 85.3617 40.4453 85.3608C40.7604 85.3601 41.0173 85.6145 41.0189 85.9299L41.0536 92.9999C42.265 92.9999 51.632 92.9999 52.8846 92.9999L52.9193 86.0919C52.9193 86.0919 52.9193 86.0917 52.9193 86.0915C52.9209 85.7971 53.1605 85.5597 53.4549 85.5604C53.7494 85.5611 53.9873 85.8002 53.9873 86.0946V92.9999C57.4605 92.9999 66.4266 92.9999 69.6796 92.9999V86.0946C69.6796 85.7793 69.9348 85.5235 70.2501 85.5226C70.5653 85.5219 70.8221 85.7764 70.8237 86.0917L70.8584 92.9997H76.7837L76.749 86.0625Z" fill="#032C4B"/>
<path d="M31.9567 77.0393C35.3873 77.0393 38.1684 74.2582 38.1684 70.8276C38.1684 67.3969 35.3873 64.6158 31.9567 64.6158C28.5261 64.6158 25.745 67.3969 25.745 70.8276C25.745 74.2582 28.5261 77.0393 31.9567 77.0393Z" fill="#032C4B"/>
<path d="M62.1337 77.2006C65.5643 77.2006 68.3454 74.4195 68.3454 70.9888C68.3454 67.5582 65.5643 64.7771 62.1337 64.7771C58.7031 64.7771 55.922 67.5582 55.922 70.9888C55.922 74.4195 58.7031 77.2006 62.1337 77.2006Z" fill="#032C4B"/>
</g>
<defs>
<clipPath id="clip0">
<rect width="93" height="93" fill="white"/>
</clipPath>
</defs>
</svg>
