<svg width="93" height="93" viewBox="0 0 93 93" fill="none" xmlns="http://www.w3.org/2000/svg">
<g clip-path="url(#clip0)">
<path d="M46.4996 0C36.4788 0 28.3283 8.15269 28.3283 18.1735V27.5888C28.3283 37.6104 36.4788 45.7631 46.4996 45.7631C56.5212 45.7631 64.6709 37.6104 64.6709 27.5888V18.1735C64.6711 8.15269 56.5212 0 46.4996 0Z" fill="#032C4B"/>
<path d="M86.5741 69.4451C80.7554 59.5292 71.4547 52.1777 60.3856 48.745C60.1289 48.6653 59.8514 48.7331 59.6602 48.922C54.511 53.999 48.1126 57.9601 46.513 58.9168C44.8056 57.8254 37.6134 53.1375 33.3376 48.922C33.1472 48.7331 32.8674 48.6653 32.6122 48.745C21.5416 52.1785 12.2417 59.5299 6.42514 69.4459C6.29196 69.6728 6.29196 69.9547 6.42514 70.1817C14.685 84.2565 30.0403 93 46.4989 93C62.9583 93 78.3143 84.2565 86.5741 70.1817C86.7081 69.954 86.7081 69.672 86.5741 69.4451ZM71.2136 74.8658C71.2136 75.2669 70.832 75.5734 70.4317 75.5734H65.5102C65.1092 75.5734 64.6717 75.9179 64.6717 76.3196V81.4093C64.6717 81.8095 64.4574 82.1153 64.0564 82.1153H59.6363C59.2353 82.1153 58.8574 81.8095 58.8574 81.4093V76.3196C58.8559 75.9186 58.5821 75.5734 58.1811 75.5734H53.0475C52.6465 75.5734 52.3147 75.2661 52.3147 74.8658V70.4837C52.3147 70.0827 52.6465 69.7591 53.0475 69.7591H58.1811C58.5821 69.7591 58.8559 69.4317 58.8559 69.03V63.9343C58.8559 63.5333 59.2338 63.2171 59.6349 63.2171H64.0073C64.4076 63.2171 64.671 63.5333 64.671 63.9343V69.0448C64.671 69.4466 65.0593 69.7583 65.4611 69.7583H70.4317C70.832 69.7583 71.2136 70.0976 71.2136 70.4986V74.8658V74.8658Z" fill="#032C4B"/>
</g>
<defs>
<clipPath id="clip0">
<rect width="93" height="93" fill="white"/>
</clipPath>
</defs>
</svg>
